<?xml version="1.0" encoding="utf-8"?>
<!-- Generator: Adobe Illustrator 16.0.4, SVG Export Plug-In . SVG Version: 6.00 Build 0)  -->
<!DOCTYPE svg PUBLIC "-//W3C//DTD SVG 1.1//EN" "http://www.w3.org/Graphics/SVG/1.1/DTD/svg11.dtd">
<svg version="1.1" id="Layer_1" xmlns="http://www.w3.org/2000/svg" xmlns:xlink="http://www.w3.org/1999/xlink" x="0px" y="0px"
	 width="514.974px" height="518.975px" viewBox="0 0 514.974 518.975" enable-background="new 0 0 514.974 518.975"
	 xml:space="preserve">
<g>
	<defs>
		<rect id="SVGID_1_" x="-115.604" y="-476.6" width="750" height="1334"/>
	</defs>
	<clipPath id="SVGID_2_">
		<use xlink:href="#SVGID_1_"  overflow="visible"/>
	</clipPath>
	<g opacity="0.24" clip-path="url(#SVGID_2_)" enable-background="new    ">
		<g>
			<defs>
				<rect id="SVGID_3_" x="-21.604" y="-102.6" width="560" height="762"/>
			</defs>
			<clipPath id="SVGID_4_">
				<use xlink:href="#SVGID_3_"  overflow="visible"/>
			</clipPath>
			<g clip-path="url(#SVGID_4_)">
				<defs>
					<rect id="SVGID_5_" x="-95.604" y="-102.6" width="730" height="762"/>
				</defs>
				<clipPath id="SVGID_6_">
					<use xlink:href="#SVGID_5_"  overflow="visible"/>
				</clipPath>
				<path clip-path="url(#SVGID_6_)" fill="none" stroke="#FFFFFF" stroke-width="24" stroke-miterlimit="10" d="M20.568,218.748
					C32.169,136.174,84.505,69.352,154.411,35.737c41.215-19.819,88.538-28.094,137.221-21.25
					C422.892,32.93,514.343,154.29,495.896,285.553c-5.773,41.074-21.627,78.246-44.705,109.378l-1.819,88.939
					c-0.24,11.739-9.727,18.888-21.081,15.886l-85.992-22.766c-36.287,13.603-76.393,18.596-117.467,12.823
					C93.571,471.364,2.119,350.005,20.568,218.748"/>
			</g>
		</g>
	</g>
</g>
<g>
</g>
<g>
</g>
<g>
</g>
<g>
</g>
<g>
</g>
<g>
</g>
</svg>
