<?xml version="1.0" encoding="utf-8"?>
<!-- Generator: Adobe Illustrator 16.0.4, SVG Export Plug-In . SVG Version: 6.00 Build 0)  -->
<!DOCTYPE svg PUBLIC "-//W3C//DTD SVG 1.1//EN" "http://www.w3.org/Graphics/SVG/1.1/DTD/svg11.dtd">
<svg version="1.1" id="Layer_1" xmlns="http://www.w3.org/2000/svg" xmlns:xlink="http://www.w3.org/1999/xlink" x="0px" y="0px"
	 width="277.818px" height="68.734px" viewBox="0 0 277.818 68.734" enable-background="new 0 0 277.818 68.734"
	 xml:space="preserve">
<g>
	<defs>
		<path id="SVGID_1_" d="M155.338,50.193v13.28c-7.468,3.748-14.488,5.622-21.506,5.622c-19.464,0-31.166-11.41-31.166-25.918
			c0-15.634,13.388-28.54,30.416-28.54c4.214,0,7.396,0.75,10.734,1.85c2.395,0.75,3.868,1.61,5.366,1.61
			c1.314,0,1.678-2.186,1.868-3.46h1.854l1.688,17.962h-2.246c-0.922-3.556-2.608-6.47-4.854-8.516
			c-3.494-3.556-8.324-5.43-13.847-5.43c-11.7,0-18.526,9.268-18.526,23.214c0,13.755,8.33,23.108,19.458,23.108
			c3.276,0,6.272-0.75,9.94-2.437V48.878c0-4.39-0.702-6.078-7.038-6.078v-2.054h23.508V42.8
			C155.15,42.8,155.338,44.674,155.338,50.193z M90.606,28.298v39.866H87.52L47.648,26.983c0.188,1.124,0.188,2.061,0.188,3.182
			V55.25c0,7.666,0,10.472,7.02,10.472v2.054H36.138v-2.054c7.094,0,7.094-3.368,7.094-10.472V26.651c0-4.25,0-8.912-7.466-8.912
			v-1.966h17.652l32.79,33.666c-0.188-0.932-0.188-1.492-0.188-2.804V28.298c0-7.396,0.188-10.558-6.852-10.558v-1.966h18.714v1.966
			C90.972,17.74,90.606,20.72,90.606,28.298z M0,67.775v-2.054c4.496,0,7.68-0.374,7.68-6.886v-34.19c0-6.74-2.434-6.906-7.68-6.906
			v-1.966h26.362v1.966c-5.4,0-7.646,0.166-7.646,6.906v34.19c0,6.512,2.814,6.886,7.646,6.886v2.054H0z"/>
	</defs>
	<clipPath id="SVGID_2_">
		<use xlink:href="#SVGID_1_"  overflow="visible"/>
	</clipPath>
	<g clip-path="url(#SVGID_2_)">
		<defs>
			<rect id="SVGID_3_" x="-236.072" y="-49.86" width="750" height="1334"/>
		</defs>
		<clipPath id="SVGID_4_">
			<use xlink:href="#SVGID_3_"  overflow="visible"/>
		</clipPath>
		<rect x="-10" y="4.638" clip-path="url(#SVGID_4_)" fill="#FFFFFF" width="180.988" height="74.458"/>
	</g>
</g>
<g>
	<defs>
		<path id="SVGID_5_" d="M243.85,10.914c0.776,0.804,1.185,1.354,1.477,1.73c0.798,0.934,2.191,2.48,3.128,3.7
			c0.146-0.142,0.416-0.348,0.739-0.434c1.03-0.29,1.402-0.372,1.771-0.458c0.304-0.07,0.842-0.182,0.857-0.19
			c0.066-0.02,0.156-0.108,0.148-0.148c-0.1-0.372-0.326-0.678-0.582-0.978c-0.128-0.156-0.729-0.568-0.382-0.58
			c0.028-0.002,0.236,0.004,0.328-0.002c0.136-0.012,0.684-0.086,0.985-0.172c0.752-0.176,1.954-0.34,2.372-0.058
			c0.75,0.5,1.15,1.25,1.74,1.866c-0.42-0.08-0.824-0.252-1.238-0.284c-0.987-0.074-1.979,0.078-2.958,0.284
			c0.15,0.098,0.396,0.454,0.423,0.488c0.388,0.486,1.018,0.67,1.308,1.24c-0.24-0.112-0.488-0.112-0.742-0.066
			c-0.062,0.01-0.454,0.07-0.562,0.092c-0.526,0.106-1.513,0.176-1.71,0.204c-0.402,0.052-0.853,0.062-1.185,0.262
			c0.668,0.496,3.891,1.59,5.43,1.59c1.54,0,2.48-0.076,3.698-0.696c0.212-0.106,0.446-0.278,0.65-0.198
			c0.66,0.248,1.069,0.488,1.508,0.756c4.574,2.82,9.794,9.696,11.428,13.266c3.548,7.768,3.414,17.21-2.132,24.284
			c-1.84,2.352-5.172,4.254-8.815,4.598c-0.061,0.008-0.118,0.078-0.078,0.154c0.792,1.563,1.638,3.027,2.229,4.682
			c0.034,0.1,0.172,0.23,0.218,0.22c0.708-0.166,1.104-0.258,1.656-0.628c0.036-0.432-0.452-1.652-0.52-1.908
			c-0.038-0.121-0.276-1.146-0.374-1.388c-0.072-0.18,0.138-0.294,0.342-0.336c0.736-0.149,1.006-0.39,1.706-0.476
			c0.164,0.422,0.43,0.779,0.638,1.18c0.05,0.094,0.536,1.168,0.842,1.534c0.645-0.288,1.286-0.73,1.725-1.236
			c0.032-0.358-0.132-0.698-0.288-1.006c-0.324-0.628-0.477-1.324-0.534-2.036c0.402-0.18,0.998-0.576,1.25-0.807
			c0.094-0.084,0.262-0.174,0.386-0.084c0.106,0.078,0.204,0.169,0.29,0.297c0.336,0.488,0.916,0.766,1.044,1.416
			c0.015,0.066,0.093,0.124,0.152,0.074c0.586-0.511,1.086-1.095,1.488-1.721c-0.395-0.668-0.828-1.246-1.286-1.914
			c-0.07-0.1-0.012-0.222,0.102-0.342c0.288-0.314,0.702-1.02,0.891-1.38c0.058,0.017,0.508,0.222,0.569,0.242
			c0.389,0.226,0.746,0.418,1.2,0.848c0.552-0.692,0.922-1.454,1.152-2.386c-0.158-0.18-0.723-0.668-0.78-0.712
			c-0.24-0.194-0.404-0.339-0.624-0.552c0.334-0.604,0.51-1.301,0.912-1.862c0.442,0.196,0.822,0.487,1.232,0.741
			c0.308-0.733,0.701-1.799,0.743-2.467c-0.39-0.356-0.857-0.619-1.237-0.988c0.117-0.778,0.056-1.062,0.136-1.645
			c0.02-0.146,0.076-0.205,0.182-0.195c0.032,0,0.935,0.201,1.246,0.193c0.176-0.952,0.238-2.044,0.166-2.878
			c-0.206-0.12-0.403-0.22-0.63-0.304c-0.306-0.068-0.446-0.122-0.686-0.106c0.056-0.658-0.082-1.315,0-1.974
			c0.38-0.058,1.124,0.142,1.13-0.108c0.021-1.064-0.09-1.994-0.307-2.606c-0.428-0.242-0.92-0.382-1.397-0.496
			c-0.106-0.52-0.176-1.05-0.332-1.56c0.374-0.124,0.77-0.06,1.149-0.17c0.062-0.02,0.099-0.076,0.08-0.16
			c-0.172-0.95-0.338-1.368-0.653-2.054c-0.383-0.212-0.807-0.25-1.232-0.25c-0.162-0.384-0.378-0.746-0.496-1.15
			c0.284-0.252,0.694-0.26,0.988-0.494c-0.24-0.792-0.43-1.154-0.824-1.644c-0.38-0.062-0.764-0.108-1.147-0.082
			c-0.181-0.35-0.398-0.634-0.496-1.068c0.262-0.19,0.582-0.278,0.823-0.494c-0.268-0.628-0.531-1.032-0.903-1.482
			c-0.416-0.034-0.788,0.166-1.187,0.094c-0.062-0.008-0.609-0.716-0.52-0.812c0.312-0.332,0.508-0.506,0.718-0.762
			c-0.422-0.664-0.75-1.102-1.234-1.562c-0.384,0.064-0.85,0.16-1.098,0.098c-0.22-0.058-0.378-0.348-0.538-0.6
			c-0.054-0.086-0.078-0.138,0-0.218c0.185-0.186,0.316-0.316,0.475-0.522c0.027-0.034,0.027-0.114,0-0.148
			c-0.58-0.786-1.112-1.332-1.799-1.982c-0.352,0.042-0.781,0.432-0.93,0.314c-0.282-0.222-0.438-0.296-0.712-0.588
			c-0.056-0.058-0.056-0.206,0.004-0.271c0.06-0.184,0.282-0.35,0.404-0.526c-0.513-0.684-1.136-1.21-1.893-1.726
			c-0.365,0.074-0.676,0.344-1.067,0.33c-0.624-0.458-1.252-0.646-0.723-1.216c0.026-0.03,0.305-0.266,0.217-0.336
			c-0.839-0.672-1.173-0.906-2.038-1.5c-0.568-0.392-0.904-0.926-1.286-1.496c-1.288-1.932-2.922-4.822-6.866-5.388
			c-0.052-0.008-0.12,0.078-0.072,0.142c0.557,0.71,1.053,1.362,1.471,2.148c0.035,0.074,0.088,0.198-0.755,0.096
			c-0.447-0.042-0.691,0.008-1.117-0.022c-0.318-0.024-0.648-0.75-0.794-1.102c-0.244-0.602-0.354-0.864-0.895-1.238
			c-0.186-0.132-0.406-0.078-0.624,0C248.532,9.332,246.384,10.338,243.85,10.914"/>
	</defs>
	<clipPath id="SVGID_6_">
		<use xlink:href="#SVGID_5_"  overflow="visible"/>
	</clipPath>
	<g clip-path="url(#SVGID_6_)">
		<defs>
			<rect id="SVGID_7_" x="-236.072" y="-49.86" width="750" height="1334"/>
		</defs>
		<clipPath id="SVGID_8_">
			<use xlink:href="#SVGID_7_"  overflow="visible"/>
		</clipPath>
		<rect x="233.85" y="-1.428" clip-path="url(#SVGID_8_)" fill="#FFFFFF" width="54.489" height="77.495"/>
	</g>
</g>
<g>
	<defs>
		<path id="SVGID_9_" d="M190.138,4.438c-0.522,0.5-0.8,1.1-1.2,1.704c0.103,0.064,0.847,0.47,0.853,0.472
			c0.527,0.33,0.79,0.378,0.854,0.328c0.208-0.16,1.292-1.504,1.46-1.818c1.188-0.622,3.272-1.986,4.066-2.602
			c0.226,0.22,2.256,1.512,3.204,2.162c0.706,0.484,1.46,0.666,2.06,1.05c0.432-0.636,0.732-1.338,1.061-2.028
			c0.023-0.048,0.119-0.32,0.155-0.39c0.452,0.374,1.236,0.308,1.648,0.626c0.063,0.052,0.072,0.05,0.028,0.238
			c-0.145,0.586-0.017,1.25,0.155,1.878c0.036,0.126,0.152,0.094,0.242,0.09c0.18-0.012,0.598-0.2,0.972-0.316
			c1.049-0.324,2.11-0.496,2.616-0.742c0.572-0.284,1.042-0.728,1.562-1.108c0.363-0.272,0.768-0.588,1.086-0.818
			c0.132-0.094,0.144-0.142,0.386-0.154c0.308,0.044,1.192,0.352,1.566,0.48c0.531,0.178,1.069,0.298,1.224,0.35
			c0.592,0.198,1.42,0.5,1.578,0.446c0.33-0.106,1.182-0.752,1.756-1.186c-1.698-1.03-3.372-2.104-5.272-2.768
			c-0.086-0.032-0.134,0.014-0.233,0.136c-0.158,0.142-1.26,1.114-1.474,1.312c-0.152,0.142-0.375,0.168-0.589,0.172
			c-0.105,0.004-0.092-0.566-0.111-0.83c-0.026-0.348,0.204-0.858-0.08-0.99c-0.256-0.112-1.284-0.186-1.353-0.082
			c-0.328,0.468-0.363,1.036-0.476,1.64c-0.072,0.356-0.103,1.2-0.974,1.558c-0.312,0.178-0.582,0.154-0.702,0.182
			c0.014-0.224-0.103-1.356-0.103-1.58c0-0.09-0.188-1.152-0.275-1.342c-0.164-0.326-0.717,0.154-1.08,0.344
			c-0.276,0.142-1.334,0.772-1.418,0.78c-0.066,0.006-0.496-0.23-0.69-0.308c-0.638-0.28-0.866-0.372-1.532-0.61
			c-0.304,0.996-0.644,2.138-0.722,2.362c-0.014,0.048-0.106,0.048-0.162-0.002c-0.014-0.014-1.766-1.746-2.572-2.77
			c-1.72,0.384-3.372,1.02-5.09,1.438C191.792,2.488,190.944,3.488,190.138,4.438"/>
	</defs>
	<clipPath id="SVGID_10_">
		<use xlink:href="#SVGID_9_"  overflow="visible"/>
	</clipPath>
	<g clip-path="url(#SVGID_10_)">
		<defs>
			<rect id="SVGID_11_" x="-236.072" y="-49.86" width="750" height="1334"/>
		</defs>
		<clipPath id="SVGID_12_">
			<use xlink:href="#SVGID_11_"  overflow="visible"/>
		</clipPath>
		<rect x="178.938" y="-10" clip-path="url(#SVGID_12_)" fill="#FFFFFF" width="48.532" height="26.959"/>
	</g>
</g>
<g>
	<defs>
		<path id="SVGID_13_" d="M219.831,10.698c0.147,0.066,0.962,0.364,1.16,0.36c0.113-0.002,0.216-0.01,0.222-0.094
			c0.048-0.508-0.141-0.996-0.242-1.48c-0.274-1.29-0.794-2.536-1.032-3.918c-0.034-0.192-0.01-0.548,0-0.74
			c-0.726-0.42-1.538-0.636-2.304-0.974c-0.076-0.032-0.222-0.048-0.23,0.07c-0.012,0.566,0.267,1.12,0.469,1.538
			c0.304,0.634,0.726,1.714,0.85,2c0.052,0.116,0.178,0.742,0.144,1.078c-0.052,0.544,0.242,1.068,0.32,1.626
			C219.236,10.534,219.398,10.504,219.831,10.698"/>
	</defs>
	<clipPath id="SVGID_14_">
		<use xlink:href="#SVGID_13_"  overflow="visible"/>
	</clipPath>
	<g clip-path="url(#SVGID_14_)">
		<defs>
			<rect id="SVGID_15_" x="-236.072" y="-49.86" width="750" height="1334"/>
		</defs>
		<clipPath id="SVGID_16_">
			<use xlink:href="#SVGID_15_"  overflow="visible"/>
		</clipPath>
		<rect x="207.404" y="-6.171" clip-path="url(#SVGID_16_)" fill="#FFFFFF" width="23.816" height="27.229"/>
	</g>
</g>
<g>
	<defs>
		<path id="SVGID_17_" d="M220.136,12.18c-0.266,0.246-0.852,0.68-0.668,0.864c0.229,0.231,0.602,0.336,0.892,0.51
			c0.454,0.27,0.847,0.594,1.276,0.932c0.866,0.678,1.16,1.576,2.096,2.194c0.322,0.212,0.536,0.344,0.727,0.474
			c0.048,0.034,0.802,0.486,0.91,0.584c0.004-0.664-0.297-1.332-0.425-1.962c-0.078-0.374-0.155-0.846-0.308-1.12
			c-0.142-0.216-0.266-0.344-0.568-0.586c-0.628-0.516-1.146-1.062-1.239-1.152c-0.536-0.496-1.007-1.044-1.492-1.594
			C220.82,11.438,220.491,11.844,220.136,12.18"/>
	</defs>
	<clipPath id="SVGID_18_">
		<use xlink:href="#SVGID_17_"  overflow="visible"/>
	</clipPath>
	<g clip-path="url(#SVGID_18_)">
		<defs>
			<rect id="SVGID_19_" x="-236.072" y="-49.86" width="750" height="1334"/>
		</defs>
		<clipPath id="SVGID_20_">
			<use xlink:href="#SVGID_19_"  overflow="visible"/>
		</clipPath>
		<rect x="209.433" y="1.324" clip-path="url(#SVGID_20_)" fill="#FFFFFF" width="25.936" height="26.414"/>
	</g>
</g>
<g>
	<defs>
		<path id="SVGID_21_" d="M222.453,17.37c-0.168-0.09-0.694-0.258-1.471-0.448c-0.216-0.056-0.622-0.3-0.792-0.238
			c-0.149,0.052-0.12,0.224-0.063,0.308c0.233,0.382,0.352,0.69,0.46,0.968c0.084,0.224,0.412,1.19,0.588,1.506
			c0.368,0.046,0.92,0.194,1.212,0.28c0.21,0.062,1.386,0.564,1.882,0.858c0.238,0.142,1.398,1.188,1.532,1.278
			c0.634,0.438,1.088,0.802,1.514,0.64c0.252-0.092,0.004-0.53-0.111-0.726c-0.656-1.116-1.183-3.012-1.454-3.132
			c-0.427-0.192-0.769,0.09-1.53-0.35C223.762,18.054,222.682,17.498,222.453,17.37"/>
	</defs>
	<clipPath id="SVGID_22_">
		<use xlink:href="#SVGID_21_"  overflow="visible"/>
	</clipPath>
	<g clip-path="url(#SVGID_22_)">
		<defs>
			<rect id="SVGID_23_" x="-236.072" y="-49.86" width="750" height="1334"/>
		</defs>
		<clipPath id="SVGID_24_">
			<use xlink:href="#SVGID_23_"  overflow="visible"/>
		</clipPath>
		<rect x="210.081" y="6.674" clip-path="url(#SVGID_24_)" fill="#FFFFFF" width="27.343" height="25.887"/>
	</g>
</g>
<g>
	<defs>
		<path id="SVGID_25_" d="M217.892,18.894c-0.254,0.488-0.768,0.958-0.534,1.452c0.316,0.658,0.312,1.422,0.75,1.95
			c0.464,0.563,1.353,0.426,1.922,0.942c0.059,0.05,0.146-0.016,0.143-0.07c-0.07-1.21-0.576-2.294-0.937-3.442
			c-0.18-0.582-0.582-1.074-0.939-1.576C218.102,18.366,218.022,18.638,217.892,18.894"/>
	</defs>
	<clipPath id="SVGID_26_">
		<use xlink:href="#SVGID_25_"  overflow="visible"/>
	</clipPath>
	<g clip-path="url(#SVGID_26_)">
		<defs>
			<rect id="SVGID_27_" x="-236.072" y="-49.86" width="750" height="1334"/>
		</defs>
		<clipPath id="SVGID_28_">
			<use xlink:href="#SVGID_27_"  overflow="visible"/>
		</clipPath>
		<rect x="207.298" y="8.149" clip-path="url(#SVGID_28_)" fill="#FFFFFF" width="22.874" height="25.106"/>
	</g>
</g>
<g>
	<defs>
		<path id="SVGID_29_" d="M189.358,16.062c-0.93,0.192-2.548,0.764-2.569,1.104c-0.048,0.526-0.07,1.814-0.057,1.958
			c0.053,0.484,0.192,1.04,0.393,1.492c0.428-0.49,0.686-0.684,0.93-0.902c0.148-0.12,2.14-1.592,2.32-1.72
			c0.37-0.274,0.676-0.244,0.697-0.572c0.062-0.958,0.385-0.992,0.223-1.306C191.1,15.733,189.791,15.976,189.358,16.062"/>
	</defs>
	<clipPath id="SVGID_30_">
		<use xlink:href="#SVGID_29_"  overflow="visible"/>
	</clipPath>
	<g clip-path="url(#SVGID_30_)">
		<defs>
			<rect id="SVGID_31_" x="-236.072" y="-49.86" width="750" height="1334"/>
		</defs>
		<clipPath id="SVGID_32_">
			<use xlink:href="#SVGID_31_"  overflow="visible"/>
		</clipPath>
		<rect x="176.728" y="5.907" clip-path="url(#SVGID_32_)" fill="#FFFFFF" width="24.611" height="24.709"/>
	</g>
</g>
<g>
	<defs>
		<path id="SVGID_33_" d="M187.772,15.738c0.674-0.584,1.074-0.87,1.973-1.752c0.228-0.222,0.319-0.118,0.892-0.448
			c0.24-0.138,0.39-0.342,0.378-0.488c-0.023-0.374-0.164-0.71-0.388-1.182c-0.134-0.272-0.552-1.178-0.572-1.426
			c-0.02-0.228,0.021-0.96,0.048-1.102c0.092-0.484,0.194-0.938,0.288-1.458c0.01-0.112,0.024-0.228,0.024-0.344
			c-0.11-0.024-0.221-0.034-0.326-0.034c-0.118,0-0.948,0.186-1.48,0.313c-0.102,0.026-0.296,0.078-0.312,0.218
			c-0.062,0.526-0.126,1.052-0.126,1.562c0,0.71,0.258,1.394,0.406,2.144c0.039,0.178,0.117,0.442-0.022,0.514
			c-0.056,0.028-0.306,0.17-0.356,0.2c-0.539,0.316-0.981,0.734-1.479,1.088c0.214,0.946,0.034,1.899,0.17,2.878
			c0.008,0.062,0.096,0.128,0.148,0.074C187.371,16.124,187.484,15.988,187.772,15.738"/>
	</defs>
	<clipPath id="SVGID_34_">
		<use xlink:href="#SVGID_33_"  overflow="visible"/>
	</clipPath>
	<g clip-path="url(#SVGID_34_)">
		<defs>
			<rect id="SVGID_35_" x="-236.072" y="-49.86" width="750" height="1334"/>
		</defs>
		<clipPath id="SVGID_36_">
			<use xlink:href="#SVGID_35_"  overflow="visible"/>
		</clipPath>
		<rect x="176.718" y="-2.496" clip-path="url(#SVGID_36_)" fill="#FFFFFF" width="24.297" height="29.012"/>
	</g>
</g>
<g>
	<defs>
		<path id="SVGID_37_" d="M190.245,20.214c-0.542,0.216-0.849,0.364-1.32,0.562c-0.554,0.278-1.082,0.43-1.398,0.632
			c-0.773,0.482-1.212,0.904-2.117,1.45c0.031,0.958,0.071,1.122,0.128,1.654c0.073,0.534,0.231,1.638,0.224,1.78
			c0.016,0.106,0.034,0.216,0.05,0.328c0.366-0.598,1.326-1.662,1.97-2.334c0.398-0.412,1.03-1.208,2.839-2.138
			c0.195-0.102,0.191-0.102,0.21-0.22c0.092-0.608,0.136-1.232,0.146-1.854C190.978,19.87,190.474,20.124,190.245,20.214"/>
	</defs>
	<clipPath id="SVGID_38_">
		<use xlink:href="#SVGID_37_"  overflow="visible"/>
	</clipPath>
	<g clip-path="url(#SVGID_38_)">
		<defs>
			<rect id="SVGID_39_" x="-236.072" y="-49.86" width="750" height="1334"/>
		</defs>
		<clipPath id="SVGID_40_">
			<use xlink:href="#SVGID_39_"  overflow="visible"/>
		</clipPath>
		<rect x="175.409" y="9.997" clip-path="url(#SVGID_40_)" fill="#FFFFFF" width="25.565" height="26.623"/>
	</g>
</g>
<g>
	<defs>
		<path id="SVGID_41_" d="M223.336,24.667c-0.15-0.08-0.433-0.122-0.604-0.168c-0.428-0.12-1.258-0.228-1.258-0.176
			c-0.014,0.314-0.084,0.668-0.105,1.012c-0.007,0.09,0.063,0.596,0.149,0.768c0.046,0.098,0.898,1.852,1.036,2.088
			c0.19,0.34,0.476,0.596,0.772,0.674c0.43,0.114,0.934,0.434,1.302,0.306c-0.094-0.442-0.332-0.876-0.418-1.312
			c-0.196-0.974-0.59-1.424-0.716-2.042c-0.03-0.162,0.04-0.328,0.048-0.486C223.564,24.926,223.415,24.706,223.336,24.667"/>
	</defs>
	<clipPath id="SVGID_42_">
		<use xlink:href="#SVGID_41_"  overflow="visible"/>
	</clipPath>
	<g clip-path="url(#SVGID_42_)">
		<defs>
			<rect id="SVGID_43_" x="-236.072" y="-49.86" width="750" height="1334"/>
		</defs>
		<clipPath id="SVGID_44_">
			<use xlink:href="#SVGID_43_"  overflow="visible"/>
		</clipPath>
		<rect x="211.368" y="14.311" clip-path="url(#SVGID_44_)" fill="#FFFFFF" width="23.261" height="24.891"/>
	</g>
</g>
<g>
	<defs>
		<path id="SVGID_45_" d="M186.046,27.296c-0.15,0.044-0.164,0.446-0.143,0.96c0.015,0.236,0.188,2.204,0.286,2.786
			c0.103,0.582,0.221,1.044,0.351,1.53c0.113,0.436,0.256,0.802,0.348,1.08c0.052,0.145,0.298-0.126,0.49-0.386
			c0.292-0.41,0.771-1.176,1.054-1.654c0.088-0.152,0.086-0.124,0.042-0.304c-0.254-1.082-0.546-2.3-0.565-2.62
			c-0.038-0.598,0.298-1.888,0.382-2.126c0.063-0.172,0.109-0.574,0.014-0.53C187.6,26.362,186.882,27.05,186.046,27.296"/>
	</defs>
	<clipPath id="SVGID_46_">
		<use xlink:href="#SVGID_45_"  overflow="visible"/>
	</clipPath>
	<g clip-path="url(#SVGID_46_)">
		<defs>
			<rect id="SVGID_47_" x="-236.072" y="-49.86" width="750" height="1334"/>
		</defs>
		<clipPath id="SVGID_48_">
			<use xlink:href="#SVGID_47_"  overflow="visible"/>
		</clipPath>
		<rect x="175.896" y="16.029" clip-path="url(#SVGID_48_)" fill="#FFFFFF" width="22.608" height="27.663"/>
	</g>
</g>
<g>
	<defs>
		<path id="SVGID_49_" d="M189.21,32.691c-0.148,0.104-1.008,0.73-1.298,0.956c-0.282,0.222-0.608,0.394-0.948,0.54
			c0.112,0.338,0.262,0.568,0.357,0.912c0.078,0.276,0.057,0.534,0.173,0.956c0.082,0.298,0.09,0.742,0.161,1.05
			c0.03,0.126,0.276,0.056,0.312-0.002c0.156-0.254,0.086-0.418,0.226-0.652c0.73-1.102,1.849-2.082,2.059-2.264
			c-0.234-0.526-0.395-0.996-0.473-1.61C189.743,32.313,189.491,32.492,189.21,32.691"/>
	</defs>
	<clipPath id="SVGID_50_">
		<use xlink:href="#SVGID_49_"  overflow="visible"/>
	</clipPath>
	<g clip-path="url(#SVGID_50_)">
		<defs>
			<rect id="SVGID_51_" x="-236.072" y="-49.86" width="750" height="1334"/>
		</defs>
		<clipPath id="SVGID_52_">
			<use xlink:href="#SVGID_51_"  overflow="visible"/>
		</clipPath>
		<rect x="176.964" y="22.445" clip-path="url(#SVGID_52_)" fill="#FFFFFF" width="23.288" height="24.731"/>
	</g>
</g>
<g>
	<defs>
		<path id="SVGID_53_" d="M193.291,32.722c-0.206-0.082-0.555-0.356-0.588-0.09c-0.066,0.45-0.074,1.156-0.066,1.444
			c0.004,0.15,0.028,1.004,0.054,1.386c0.024,0.36,0.192,0.626,0.25,0.754c0.086,0.178,0.387,0.444,0.648,0.594
			c0.527,0.294,1.122,0.508,1.688,0.816c0.066,0.038,0.238,0.04,0.21-0.06c-0.216-0.84-0.684-1.563-0.901-2.4
			c-0.154-0.594,0.094-1.26-0.202-1.764C194.18,33.058,193.698,32.89,193.291,32.722"/>
	</defs>
	<clipPath id="SVGID_54_">
		<use xlink:href="#SVGID_53_"  overflow="visible"/>
	</clipPath>
	<g clip-path="url(#SVGID_54_)">
		<defs>
			<rect id="SVGID_55_" x="-236.072" y="-49.86" width="750" height="1334"/>
		</defs>
		<clipPath id="SVGID_56_">
			<use xlink:href="#SVGID_55_"  overflow="visible"/>
		</clipPath>
		<rect x="182.633" y="22.518" clip-path="url(#SVGID_56_)" fill="#FFFFFF" width="22.856" height="25.132"/>
	</g>
</g>
<g>
	<defs>
		<path id="SVGID_57_" d="M190.842,36.92c-0.068-0.156-0.234-0.112-0.434-0.038c-0.366,0.134-1.702,0.684-2.112,0.818
			c-0.09,0.032-0.769,0.232-0.924,0.27c0.162,0.302,0.286,0.544,0.397,0.778c0.166,0.23,0.428,0.852,0.521,1.17
			c0.052,0.52,0.294,0.77,0.399,1.014c0.366-0.286,0.648-0.5,0.969-0.79c0.5-0.518,1.409-1.59,1.827-1.926
			C191.203,37.846,190.991,37.277,190.842,36.92"/>
	</defs>
	<clipPath id="SVGID_58_">
		<use xlink:href="#SVGID_57_"  overflow="visible"/>
	</clipPath>
	<g clip-path="url(#SVGID_58_)">
		<defs>
			<rect id="SVGID_59_" x="-236.072" y="-49.86" width="750" height="1334"/>
		</defs>
		<clipPath id="SVGID_60_">
			<use xlink:href="#SVGID_59_"  overflow="visible"/>
		</clipPath>
		<rect x="177.373" y="26.814" clip-path="url(#SVGID_60_)" fill="#FFFFFF" width="24.113" height="24.117"/>
	</g>
</g>
<g>
	<defs>
		<path id="SVGID_61_" d="M197.592,34.31c-0.242-0.138-0.55-0.454-0.718-0.318c-0.183,0.144-0.208,0.332-0.23,0.536
			c-0.012,0.126,0,0.278,0.006,0.41c0.009,0.284-0.025,0.558-0.147,0.81c0.359,0.432,0.653,0.866,0.876,1.354
			c0.26,0.58,0.436,1.214,0.766,1.772c0.141-0.27,0.194-0.592,0.28-0.894c0.066-0.222,0.176-0.39,0.226-0.636
			c0.066-0.3,0.16-0.526,0.103-0.846c-0.004-0.02-0.116-0.22-0.116-0.24c-0.068-0.376,0.006-0.566-0.118-0.904
			C198.342,34.888,198.05,34.574,197.592,34.31"/>
	</defs>
	<clipPath id="SVGID_62_">
		<use xlink:href="#SVGID_61_"  overflow="visible"/>
	</clipPath>
	<g clip-path="url(#SVGID_62_)">
		<defs>
			<rect id="SVGID_63_" x="-236.072" y="-49.86" width="750" height="1334"/>
		</defs>
		<clipPath id="SVGID_64_">
			<use xlink:href="#SVGID_63_"  overflow="visible"/>
		</clipPath>
		<rect x="186.502" y="23.958" clip-path="url(#SVGID_64_)" fill="#FFFFFF" width="22.268" height="24.915"/>
	</g>
</g>
<g>
	<defs>
		<path id="SVGID_65_" d="M200.514,32.034c0.09,0.134,0.248,0.502,0.404,0.39c0.485-0.352,0.731-0.796,1.26-1.108
			c0.114-0.066,0.152-0.012,0.144,0.062c-0.029,0.234-0.029,0.368-0.029,0.66c-0.055,0.66-0.104,1.02,0.034,1.556
			c0.132,0.504,0.562,0.33,1.285,0.554c0.263,0.084,0.379-0.15,0.429-0.298c0.113-0.332,0.42-1.112,0.45-1.168
			c0.037-0.092,0.048-0.148,0.155-0.222c0.139,0,0.223,0.188,0.278,0.276c0.31,0.498,0.14,1.278,0.656,1.428
			c0.134,0.038,0.306,0.012,0.481,0.016c0.112,0.004,0.554-0.06,0.636-0.094c0.188-0.078,0.332-0.16,0.414-0.346
			c0.223-0.504,0.219-1.166,0.162-1.774c0.055-0.022,0.078-0.036,0.126-0.036c0.431,0.28,0.942,0.776,1.519,1.434
			c0.218-0.352,0.592-1.094,0.666-1.292c0.266-0.716,0.396-1.482,0.401-2.244c-2.726-1.516-6.13-1.442-9.065-0.384
			c-0.124,0.046-0.968,0.39-1.132,0.466C199.892,30.706,200.108,31.394,200.514,32.034"/>
	</defs>
	<clipPath id="SVGID_66_">
		<use xlink:href="#SVGID_65_"  overflow="visible"/>
	</clipPath>
	<g clip-path="url(#SVGID_66_)">
		<defs>
			<rect id="SVGID_67_" x="-236.072" y="-49.86" width="750" height="1334"/>
		</defs>
		<clipPath id="SVGID_68_">
			<use xlink:href="#SVGID_67_"  overflow="visible"/>
		</clipPath>
		<rect x="189.789" y="18.667" clip-path="url(#SVGID_68_)" fill="#FFFFFF" width="30.197" height="25.518"/>
	</g>
</g>
<g>
	<defs>
		<path id="SVGID_69_" d="M202.96,40.782c0.004-0.51-0.013-0.644-0.066-1.038c-0.072-0.556,0.07-1.106-0.188-1.586
			c-0.13-0.238-0.446-0.43-0.778-0.426c-0.3,0.004-0.71-0.118-0.986-0.188c-0.166-0.042-0.239-0.236-0.35-0.122
			c-0.07,0.072-0.046,0.306-0.038,0.424c0.024,0.664-0.11,0.706-0.142,1.014c-0.042,0.458,0.188,1.24,0.487,1.72
			c0.156,0.242,0.41,0.358,0.624,0.412c0.026,0.006,0.506,0.208,0.694,0.362c0.44,0.284,0.374,0.1,0.782,0.482
			C203.042,41.548,202.972,41.149,202.96,40.782"/>
	</defs>
	<clipPath id="SVGID_70_">
		<use xlink:href="#SVGID_69_"  overflow="visible"/>
	</clipPath>
	<g clip-path="url(#SVGID_70_)">
		<defs>
			<rect id="SVGID_71_" x="-236.072" y="-49.86" width="750" height="1334"/>
		</defs>
		<clipPath id="SVGID_72_">
			<use xlink:href="#SVGID_71_"  overflow="visible"/>
		</clipPath>
		<rect x="190.407" y="27.387" clip-path="url(#SVGID_72_)" fill="#FFFFFF" width="22.606" height="24.449"/>
	</g>
</g>
<g>
	<defs>
		<path id="SVGID_73_" d="M204.9,37.498c-0.229,0.086-0.607,0.07-0.615,0.308c-0.019,0.496,0.104,1.004,0.151,1.492
			c0.034,0.398,0.082,0.734,0.124,1.14c0.044,0.442-0.258,0.806-0.084,1.234c0.33-0.332,1.064-0.584,1.304-0.944
			c0.37-0.562,0.566-0.572,0.673-1.032c0.155-0.704,0.189-1.858,0.086-2.796C206.008,37.158,205.516,37.266,204.9,37.498"/>
	</defs>
	<clipPath id="SVGID_74_">
		<use xlink:href="#SVGID_73_"  overflow="visible"/>
	</clipPath>
	<g clip-path="url(#SVGID_74_)">
		<defs>
			<rect id="SVGID_75_" x="-236.072" y="-49.86" width="750" height="1334"/>
		</defs>
		<clipPath id="SVGID_76_">
			<use xlink:href="#SVGID_75_"  overflow="visible"/>
		</clipPath>
		<rect x="194.283" y="26.899" clip-path="url(#SVGID_76_)" fill="#FFFFFF" width="22.315" height="24.772"/>
	</g>
</g>
<g>
	<defs>
		<path id="SVGID_77_" d="M209.436,36.446c-0.52,0.308-1.483,0.746-1.476,0.936c0.021,0.79,0.094,1.478,0.178,1.868
			c-0.004,0.614-0.1,0.868,0.138,0.996c0.603,0.314,0.824,0.322,1.398,0.696c0.07,0.048,0.691,0.488,0.82,0.524
			c0.105,0.032,0.086-0.188,0.056-0.284c-0.216-0.664-0.49-1.344-0.586-2.02c-0.146-0.97-0.064-1.938-0.064-2.918
			C209.902,36.044,209.588,36.355,209.436,36.446"/>
	</defs>
	<clipPath id="SVGID_78_">
		<use xlink:href="#SVGID_77_"  overflow="visible"/>
	</clipPath>
	<g clip-path="url(#SVGID_78_)">
		<defs>
			<rect id="SVGID_79_" x="-236.072" y="-49.86" width="750" height="1334"/>
		</defs>
		<clipPath id="SVGID_80_">
			<use xlink:href="#SVGID_79_"  overflow="visible"/>
		</clipPath>
		<rect x="197.96" y="26.178" clip-path="url(#SVGID_80_)" fill="#FFFFFF" width="22.613" height="25.291"/>
	</g>
</g>
<g>
	<defs>
		<path id="SVGID_81_" d="M212.13,35.567c-0.16-0.068-0.444-0.273-0.534-0.078c-0.258,0.586-0.318,1.68-0.148,2.226
			c0.118,0.398,1.013,2.012,1.395,2.318c0.088,0.07,1.058,0.09,1.242,0.032c0.105-0.032,0.363-0.01,0.308-0.098
			c-0.726-1.08-0.924-2.158-0.979-2.376c-0.042-0.168-0.248-0.516-0.301-1.04c-0.044-0.402,0.129-0.496-0.1-0.598
			C212.623,35.784,212.535,35.731,212.13,35.567"/>
	</defs>
	<clipPath id="SVGID_82_">
		<use xlink:href="#SVGID_81_"  overflow="visible"/>
	</clipPath>
	<g clip-path="url(#SVGID_82_)">
		<defs>
			<rect id="SVGID_83_" x="-236.072" y="-49.86" width="750" height="1334"/>
		</defs>
		<clipPath id="SVGID_84_">
			<use xlink:href="#SVGID_83_"  overflow="visible"/>
		</clipPath>
		<rect x="201.352" y="25.408" clip-path="url(#SVGID_84_)" fill="#FFFFFF" width="23.048" height="24.692"/>
	</g>
</g>
<g>
	<defs>
		<path id="SVGID_85_" d="M215.917,34.796c-0.214-0.164-0.336-0.154-0.828-0.26c-0.25-0.054-0.484-0.134-0.738-0.094
			c-0.063,0.012-0.12,0.08-0.078,0.154c0.347,0.648,0.895,1.284,0.816,2.058c0.168,0.214,0.336,0.234,0.592,0.332
			c0.364,0.136,1.088,0.374,1.46,0.37c0.158,0,0.104-0.25,0.062-0.366c-0.07-0.216-0.141-0.454-0.25-0.648
			C216.732,35.966,216.05,34.897,215.917,34.796"/>
	</defs>
	<clipPath id="SVGID_86_">
		<use xlink:href="#SVGID_85_"  overflow="visible"/>
	</clipPath>
	<g clip-path="url(#SVGID_86_)">
		<defs>
			<rect id="SVGID_87_" x="-236.072" y="-49.86" width="750" height="1334"/>
		</defs>
		<clipPath id="SVGID_88_">
			<use xlink:href="#SVGID_87_"  overflow="visible"/>
		</clipPath>
		<rect x="204.257" y="24.431" clip-path="url(#SVGID_88_)" fill="#FFFFFF" width="22.989" height="22.925"/>
	</g>
</g>
<g>
	<defs>
		<path id="SVGID_89_" d="M218.432,33.438c-0.312,0.152-0.558,0.21-0.796,0.42c0.412,0.696,0.976,1.248,1.514,1.862
			c0.254,0.29,0.796,0.254,1.185,0.302c0.863,0.104,1.604,0.074,1.682,0.058c0.594-0.13,0.872-0.254,1.212-0.578
			c-0.6-0.304-1.464-0.628-2.218-0.986c-0.702-0.506-1.296-0.818-1.808-1.398C218.852,33.189,218.686,33.32,218.432,33.438"/>
	</defs>
	<clipPath id="SVGID_90_">
		<use xlink:href="#SVGID_89_"  overflow="visible"/>
	</clipPath>
	<g clip-path="url(#SVGID_90_)">
		<defs>
			<rect id="SVGID_91_" x="-236.072" y="-49.86" width="750" height="1334"/>
		</defs>
		<clipPath id="SVGID_92_">
			<use xlink:href="#SVGID_91_"  overflow="visible"/>
		</clipPath>
		<rect x="207.636" y="23.118" clip-path="url(#SVGID_92_)" fill="#FFFFFF" width="25.592" height="22.979"/>
	</g>
</g>
<g>
	<defs>
		<path id="SVGID_93_" d="M222.159,31.074c-0.248,0.002-0.511,0.024-0.738,0.152c0.25,0.382,0.684,1.54,0.726,1.61
			c0.196,0.315,0.216,0.598,0.595,0.66c0.859,0.136,1.712,0.09,2.55,0.352c0.082,0.022,0.258,0.014,0.212-0.06
			c-0.349-0.612-0.528-0.44-0.718-0.682c-0.188-0.232-0.669-1.058-0.792-1.238c-0.2-0.294-0.295-0.572-0.517-0.816
			C223.386,30.948,222.604,31.072,222.159,31.074"/>
	</defs>
	<clipPath id="SVGID_94_">
		<use xlink:href="#SVGID_93_"  overflow="visible"/>
	</clipPath>
	<g clip-path="url(#SVGID_94_)">
		<defs>
			<rect id="SVGID_95_" x="-236.072" y="-49.86" width="750" height="1334"/>
		</defs>
		<clipPath id="SVGID_96_">
			<use xlink:href="#SVGID_95_"  overflow="visible"/>
		</clipPath>
		<rect x="211.42" y="21.01" clip-path="url(#SVGID_96_)" fill="#FFFFFF" width="24.089" height="22.849"/>
	</g>
</g>
<g>
	<defs>
		<path id="SVGID_97_" d="M227.116,35.326c-0.069-0.098-0.069-0.222-0.25-0.114c-0.104,0.06-0.489,0.326-0.909,0.562
			c-0.242,0.142-0.484,0.32-0.67,0.552c0.439,0.378,0.688,0.684,1.188,1.006c0.194,0.122,0.462,0.078,0.908,0.022
			c0.728-0.032,1.229-0.036,1.458-0.052c0.378-0.02,0.647,0.094,0.804-0.238c-0.352-0.156-1.158-0.65-1.212-0.688
			C227.944,36.056,227.46,35.813,227.116,35.326"/>
	</defs>
	<clipPath id="SVGID_98_">
		<use xlink:href="#SVGID_97_"  overflow="visible"/>
	</clipPath>
	<g clip-path="url(#SVGID_98_)">
		<defs>
			<rect id="SVGID_99_" x="-236.072" y="-49.86" width="750" height="1334"/>
		</defs>
		<clipPath id="SVGID_100_">
			<use xlink:href="#SVGID_99_"  overflow="visible"/>
		</clipPath>
		<rect x="215.287" y="25.17" clip-path="url(#SVGID_100_)" fill="#FFFFFF" width="24.357" height="22.24"/>
	</g>
</g>
<g>
	<defs>
		<path id="SVGID_101_" d="M221.758,38.31c-0.028,0.024-0.028,0.114,0,0.144c0.466,0.532,0.682,1.184,1.24,1.638
			c0.109,0.094,0.222,0.176,0.722,0.082c0.672-0.128,1.172-0.078,1.804-0.146c0.101-0.012,0.79-0.014,0.872-0.044
			c0.072-0.026,0.146-0.063,0.204-0.124c-0.078-0.26-0.12-0.55-0.34-0.616c-1.184-0.348-2.278-0.782-3.032-1.768
			C223.096,37.604,221.999,38.086,221.758,38.31"/>
	</defs>
	<clipPath id="SVGID_102_">
		<use xlink:href="#SVGID_101_"  overflow="visible"/>
	</clipPath>
	<g clip-path="url(#SVGID_102_)">
		<defs>
			<rect id="SVGID_103_" x="-236.072" y="-49.86" width="750" height="1334"/>
		</defs>
		<clipPath id="SVGID_104_">
			<use xlink:href="#SVGID_103_"  overflow="visible"/>
		</clipPath>
		<rect x="211.737" y="27.476" clip-path="url(#SVGID_104_)" fill="#FFFFFF" width="24.863" height="22.74"/>
	</g>
</g>
<g>
	<defs>
		<path id="SVGID_105_" d="M218.722,39.474c-0.502,0.332-1.084,0.382-1.498,0.798c0.13,0.408,0.336,0.804,0.658,1.104
			c0.273,0.266,0.426,0.594,1.096,0.916c0.986,0.476,0.96,0.362,1.388,0.756c0.072,0.066,0.188,0.172,0.312,0.098
			c0.676-0.414,1.472-0.454,2.222-0.5c0.061-0.004,0.124-0.082,0.074-0.146c-0.336-0.428-0.682-0.744-1.192-1.05
			c-0.764-0.302-1.239-0.664-1.562-1.276c-0.196-0.386-0.394-0.762-0.608-1.134C219.266,39.083,219.012,39.282,218.722,39.474"/>
	</defs>
	<clipPath id="SVGID_106_">
		<use xlink:href="#SVGID_105_"  overflow="visible"/>
	</clipPath>
	<g clip-path="url(#SVGID_106_)">
		<defs>
			<rect id="SVGID_107_" x="-236.072" y="-49.86" width="750" height="1334"/>
		</defs>
		<clipPath id="SVGID_108_">
			<use xlink:href="#SVGID_107_"  overflow="visible"/>
		</clipPath>
		<rect x="207.224" y="29.04" clip-path="url(#SVGID_108_)" fill="#FFFFFF" width="25.769" height="24.131"/>
	</g>
</g>
<g>
	<defs>
		<path id="SVGID_109_" d="M215.568,42.122c-0.521,0.176-1.056,0.28-1.548,0.536c0.354,0.892,0.662,1.316,1.738,2.37
			c0.046,0.044,0.262,0.166,0.313,0.164c1.047-0.021,2.091,0.138,3.131-0.066c-0.639-0.598-0.828-0.828-1.267-1.184
			c-0.59-0.42-0.95-0.566-1.618-1.366C216.128,42.118,215.942,41.998,215.568,42.122"/>
	</defs>
	<clipPath id="SVGID_110_">
		<use xlink:href="#SVGID_109_"  overflow="visible"/>
	</clipPath>
	<g clip-path="url(#SVGID_110_)">
		<defs>
			<rect id="SVGID_111_" x="-236.072" y="-49.86" width="750" height="1334"/>
		</defs>
		<clipPath id="SVGID_112_">
			<use xlink:href="#SVGID_111_"  overflow="visible"/>
		</clipPath>
		<rect x="204.02" y="32.076" clip-path="url(#SVGID_112_)" fill="#FFFFFF" width="25.183" height="23.155"/>
	</g>
</g>
<g>
	<defs>
		<path id="SVGID_113_" d="M209.909,43.649c-0.48,0.084-0.952,0.036-1.398,0.242c0.21,0.296,0.19,0.726,0.446,0.958
			c0.706,0.648,0.834,0.882,1.452,1.914c0.233,0.384,1.182,0.562,1.804,0.538c0.308-0.013,1.004-0.366,1.313-0.616
			c-0.514-0.359-1.558-1.322-2.02-1.802c-0.37-0.386-0.218-1.022-0.528-1.406C210.612,43.481,210.306,43.58,209.909,43.649"/>
	</defs>
	<clipPath id="SVGID_114_">
		<use xlink:href="#SVGID_113_"  overflow="visible"/>
	</clipPath>
	<g clip-path="url(#SVGID_114_)">
		<defs>
			<rect id="SVGID_115_" x="-236.072" y="-49.86" width="750" height="1334"/>
		</defs>
		<clipPath id="SVGID_116_">
			<use xlink:href="#SVGID_115_"  overflow="visible"/>
		</clipPath>
		<rect x="198.51" y="33.478" clip-path="url(#SVGID_116_)" fill="#FFFFFF" width="25.016" height="23.826"/>
	</g>
</g>
<g>
	<defs>
		<path id="SVGID_117_" d="M204.314,44.39c-0.062,0.022-0.894,0.124-1.151,0.324c0.035,0.62-0.047,1.228-0.292,1.802
			c-0.263,0.614-1.112,0.962-1.255,1.9c-0.008,0.054,0.064,0.082,0.148,0.078c0.188-0.011,0.727,0.105,0.816,0.078
			c0.38-0.115,0.716-0.551,0.905-0.673c0.477-0.3,0.912-0.544,1.4-0.808c0.382-0.206,0.324-0.469,0.406-0.86
			c0.004-0.022,0.355-1.422,0.408-2.094c0.002-0.056-0.076-0.114-0.146-0.078C205.336,44.162,204.508,44.33,204.314,44.39"/>
	</defs>
	<clipPath id="SVGID_118_">
		<use xlink:href="#SVGID_117_"  overflow="visible"/>
	</clipPath>
	<g clip-path="url(#SVGID_118_)">
		<defs>
			<rect id="SVGID_119_" x="-236.072" y="-49.86" width="750" height="1334"/>
		</defs>
		<clipPath id="SVGID_120_">
			<use xlink:href="#SVGID_119_"  overflow="visible"/>
		</clipPath>
		<rect x="191.616" y="34.049" clip-path="url(#SVGID_120_)" fill="#FFFFFF" width="24.085" height="24.527"/>
	</g>
</g>
<g>
	<defs>
		<path id="SVGID_121_" d="M200.612,43.246c-0.355,0.014-0.621,0.034-1.067,0.07c-0.3,0.61-0.584,1.204-0.772,1.88
			c-0.13,0.464-0.474,0.82-0.691,1.253c-0.015,0.032,0.088,0.114,0.138,0.064c0.088-0.092,0.174-0.186,0.318-0.21
			c0.796-0.14,1.204-0.206,1.504-0.194c0.527-0.484,0.859-0.804,1.342-1.362c0,0,0.324-0.742,0.194-1.324
			C201.522,43.158,200.968,43.228,200.612,43.246"/>
	</defs>
	<clipPath id="SVGID_122_">
		<use xlink:href="#SVGID_121_"  overflow="visible"/>
	</clipPath>
	<g clip-path="url(#SVGID_122_)">
		<defs>
			<rect id="SVGID_123_" x="-236.072" y="-49.86" width="750" height="1334"/>
		</defs>
		<clipPath id="SVGID_124_">
			<use xlink:href="#SVGID_123_"  overflow="visible"/>
		</clipPath>
		<rect x="188.079" y="33.224" clip-path="url(#SVGID_124_)" fill="#FFFFFF" width="23.528" height="23.306"/>
	</g>
</g>
<g>
	<defs>
		<path id="SVGID_125_" d="M196.424,40.958c-0.18,0.052-0.512,0.124-0.906,0.146c-0.132,0.004-0.118,0.186-0.13,0.246
			c-0.052,0.264-0.26,1.55-0.346,2.108c-0.07,0.594-0.286,1.02-0.314,1.078c-0.332,0.734-0.628,1.04-0.939,1.822
			c0.514,0.182,1.439,0.124,1.808-0.004c0.36-0.128,0.582-0.438,0.8-0.75c0.11-0.15,0.572-1.266,0.74-1.708
			c0.174-0.448,0.082-1.092,0-1.302c-0.126-0.324,0.116-0.964,0.01-1.494C197.058,40.674,196.71,40.874,196.424,40.958"/>
	</defs>
	<clipPath id="SVGID_126_">
		<use xlink:href="#SVGID_125_"  overflow="visible"/>
	</clipPath>
	<g clip-path="url(#SVGID_126_)">
		<defs>
			<rect id="SVGID_127_" x="-236.072" y="-49.86" width="750" height="1334"/>
		</defs>
		<clipPath id="SVGID_128_">
			<use xlink:href="#SVGID_127_"  overflow="visible"/>
		</clipPath>
		<rect x="183.789" y="30.837" clip-path="url(#SVGID_128_)" fill="#FFFFFF" width="23.446" height="25.636"/>
	</g>
</g>
<g>
	<defs>
		<path id="SVGID_129_" d="M190.654,41.186c-0.63,0.014-1.896,0.126-1.857,0.23c0.124,0.322,0.22,0.684,0.336,0.982
			c0.156,0.39,0.397,0.83,0.448,1.608c0.04,0.582,0.065,1.164-0.055,1.78c-0.004,0.05,0.09,0.128,0.145,0.07
			c0.432-0.456,1.525-1.174,1.706-1.25c0.166-0.066,0.42-0.23,0.502-0.396c0.222-0.458,0.036-0.872,0.092-1.394
			c0.04-0.428,0.11-1.31,0.172-1.72C191.791,40.897,191.064,41.174,190.654,41.186"/>
	</defs>
	<clipPath id="SVGID_130_">
		<use xlink:href="#SVGID_129_"  overflow="visible"/>
	</clipPath>
	<g clip-path="url(#SVGID_130_)">
		<defs>
			<rect id="SVGID_131_" x="-236.072" y="-49.86" width="750" height="1334"/>
		</defs>
		<clipPath id="SVGID_132_">
			<use xlink:href="#SVGID_131_"  overflow="visible"/>
		</clipPath>
		<rect x="178.795" y="31.024" clip-path="url(#SVGID_132_)" fill="#FFFFFF" width="23.347" height="24.853"/>
	</g>
</g>
<g>
	<defs>
		<path id="SVGID_133_" d="M175.808,67.535c0.136-0.004,0.17-0.131,0.126-0.201c-0.754-1.229-1.264-2.269-0.693-3.771
			c0.354-0.922,1.121-1.208,1.355-1.416c0.038-0.662-0.204-1.298-0.028-1.96c0.276-1,1.45-0.854,2.496-0.754
			c-0.098,1.302-0.397,2.559-0.546,3.868c-0.164,1.438,0.227,2.676,0.552,4.092c0.015,0.063,0.089,0.138,0.148,0.138h1.82
			c0.062,0,0.144-0.094,0.132-0.127c-0.16-0.529-0.309-0.942-0.435-1.469c-0.132-0.548-0.132-0.962-0.075-1.561
			c0.065-0.684,0.05-1.336,0.218-1.983c0.222-0.058,0.308,0.021,0.483,0.13c0.513,0.305,0.618,0.406,1.013,0.66
			c0.096,0.062,0.182-0.078,0.094-0.422c-0.226-0.706,0.396-1.266-0.18-1.809c-0.336-0.31-1.263-0.045-1.318-0.195
			c-0.07-0.176,0.132-0.692,0.426-1.344c0.29-0.648,0.402-0.811,0.782-1.459c0.138-0.073,0.828-0.031,1.408,0.041
			c0.216,0.027,0.754,0.209,1.231,0.459c0.106,0.057,0.15,0.099,0.088,0.194c-0.262,0.414-0.542,1.454-0.716,1.946
			c-0.75,2.105-0.64,4.518-0.502,6.818c0.004,0.056,0.082,0.123,0.137,0.123c0.575-0.004,0.978,0,1.729,0
			c0.032-1.295-0.166-2.644,0.092-3.918c0.351-1.709,0.88-1.781,1.061-1.832c0.363,0,0.693,0.381,0.784,0.705
			c0.462,1.701-0.603,3.35-0.702,5.045c0.676-0.004,1.046,0,1.554,0c0.234,0,0.402-0.18,0.626-0.688
			c0.462-1.064,1.07-2.172,1.284-3.32c0.186-0.886-0.156-1.55-0.776-2.57c-0.454-0.75-0.985-1.319-2.266-2.182
			c-0.271-0.796-0.086-0.938,0-1.705c0.065-0.037,0.81-0.089,1.12-0.043c1.388,0.204,1.785,0.336,2.487,0.612
			c1.252,0.492,2.303,1.196,3.469,1.952c0.067,0.046,0.149-0.006,0.153-0.076c0.03-0.527,0.141-0.82,0.17-1.234
			c-0.842-0.886-1.481-1.451-2.546-2.119c-0.702-0.398-1.884-0.658-2.878-0.86c-0.397-0.082-0.523-0.34-0.584-0.562
			c-0.12-0.416-0.018-0.606,0.006-0.977c1.095-0.128,2.406-0.152,2.94,0.03c1.712,0.54,3.828,1.63,4.794,2.262
			c0.068,0.042,0.152,0.09,0.242,0.09c0.212-0.405,0.036-0.812,0.082-1.233c-0.238-0.328-2.116-2.217-2.158-2.248
			c-0.608-0.504-1.314-0.942-2.05-1.086c-1.216-0.242-2.513-0.258-2.866-0.207c-0.222-0.237,0.018-0.586,0.16-0.783
			c0.176-0.246,0.354-0.467,0.58-0.692c0.525,0.026,0.788,0.013,1.33,0.042c0.79,0.02,2.54,0.584,3.586,1.07
			c1.664,0.773,2.436,1.374,2.651,1.682c0.19-0.632,0.093-0.88,0.244-1.318c-0.63-0.766-1.54-1.693-2.174-2.144
			c-0.958-0.68-2.272-1.434-4.534-2.12c-0.544-0.162-1.31-0.268-1.926-0.336c-1.442,2.492-2.324,5.227-3.422,7.902
			c-0.188,0.456-0.524,1.554-0.524,1.634c-0.29-0.014-1.334-0.494-1.418-0.544c-0.418-0.26-2.6-0.855-3.792,1.048
			c-0.107,0.17-0.29,0.521-0.456,0.454c-0.512-0.186-1.184-0.492-2.063-0.376c-1.267,0.166-2.318,0.896-3.021,1.985
			c-0.436,0.679-0.604,1.414-0.514,2.205c-0.774,0.324-1.422,1.155-1.645,1.89c-0.441,1.483,0.862,4.044,1.387,4.562L175.808,67.535
			"/>
	</defs>
	<clipPath id="SVGID_134_">
		<use xlink:href="#SVGID_133_"  overflow="visible"/>
	</clipPath>
	<g clip-path="url(#SVGID_134_)">
		<defs>
			<rect id="SVGID_135_" x="-236.072" y="-49.86" width="750" height="1334"/>
		</defs>
		<clipPath id="SVGID_136_">
			<use xlink:href="#SVGID_135_"  overflow="visible"/>
		</clipPath>
		<rect x="162.566" y="36.771" clip-path="url(#SVGID_136_)" fill="#FFFFFF" width="45.578" height="40.764"/>
	</g>
</g>
<g>
	<defs>
		<path id="SVGID_137_" d="M204.072,50.594c-0.43,0.01-0.59-0.114-0.909,0.042c-0.055,0.772,0.407,1.378,0.588,2.134
			c0.042,0.168,0.472,0.334,0.554,0.402c0.706,0.619,1.572,0.962,1.75,1.062c0.07,0.038,0.1-0.067,0.066-0.142
			c-0.093-0.188-0.232-0.82-0.25-0.906c-0.192-0.91-0.276-1.688-0.49-2.584c-0.034-0.156-0.225-0.132-0.316-0.109
			C204.707,50.584,204.422,50.586,204.072,50.594"/>
	</defs>
	<clipPath id="SVGID_138_">
		<use xlink:href="#SVGID_137_"  overflow="visible"/>
	</clipPath>
	<g clip-path="url(#SVGID_138_)">
		<defs>
			<rect id="SVGID_139_" x="-236.072" y="-49.86" width="750" height="1334"/>
		</defs>
		<clipPath id="SVGID_140_">
			<use xlink:href="#SVGID_139_"  overflow="visible"/>
		</clipPath>
		<rect x="193.158" y="40.476" clip-path="url(#SVGID_140_)" fill="#FFFFFF" width="22.977" height="23.767"/>
	</g>
</g>
<g>
	<defs>
		<path id="SVGID_141_" d="M209.006,49.617c-0.374-0.052-0.718-0.109-1.07,0.03c0.202,0.446,0.258,0.923,0.326,1.398
			c0.572,0.657,1.318,1.084,2.072,1.532c0.184,0.104,0.277-0.223,0.266-0.293c-0.104-0.781-0.3-1.512-0.486-2.3
			c-0.014-0.062,0.011-0.231-0.128-0.25C209.659,49.689,209.334,49.664,209.006,49.617"/>
	</defs>
	<clipPath id="SVGID_142_">
		<use xlink:href="#SVGID_141_"  overflow="visible"/>
	</clipPath>
	<g clip-path="url(#SVGID_142_)">
		<defs>
			<rect id="SVGID_143_" x="-236.072" y="-49.86" width="750" height="1334"/>
		</defs>
		<clipPath id="SVGID_144_">
			<use xlink:href="#SVGID_143_"  overflow="visible"/>
		</clipPath>
		<rect x="197.936" y="39.561" clip-path="url(#SVGID_144_)" fill="#FFFFFF" width="22.665" height="23.037"/>
	</g>
</g>
<g>
	<defs>
		<path id="SVGID_145_" d="M215.125,67.535c0.14,0,0.151-0.09,0.195-0.213c0.19-0.509,0.068-0.789,0.347-1.391
			c0.188,0.061,0.644,0.128,0.93,0.16c0.254,0.027,0.522,0.036,0.696-0.032c0.504-0.202,0.823-0.7,1.248-1.032
			c-0.632-0.486-1.486-0.521-2.214-0.836c-0.099-0.046-0.219-0.136-0.23-0.238c-0.204-1.319,0.152-1.47,0.145-2.213
			c-0.093-0.969-1.209-1.369-2.152-1.617c-0.446-0.117-1.13-0.207-1.437-0.071c-0.414,0.192-0.75,0.401-1.098,0.692
			c-0.144,0.111-0.166,0.111-0.282-0.032c-0.216-0.263-0.688-0.574-1.062-0.681c-0.345-0.096-0.811-0.216-1.24-0.021
			c-0.124,0.054-0.362,0.1-0.362,0.1s0.118-0.279,0.223-0.439c0.216-0.342,0.359-0.551,0.569-0.848
			c0.106-0.15,0.61-0.617,0.778-0.685c0.48-0.204,0.906-0.168,1.418-0.03c0.876,0.236,1.522,0.378,1.698,0.428
			c0.216,0.066,0.678,0.379,0.79,0.287c0.428-0.358,0.531-0.557,0.84-0.685c0.988-0.212,2.138-0.396,2.86-0.382
			c0.05,0,1.296,1.472,1.768,2.115c0.224,0.312,1.36,1.849,2.114,3.263c0.332-0.05,0.622-0.062,0.987-0.164
			c0.019-0.294-0.487-1.47-0.573-1.728c-0.504-1.547-0.706-2.097-0.66-2.586c0.266,0.016,0.31,0.051,0.647,0.161
			c0.332,0.103,0.836,0.292,1.4,0.638c0.246,0.15,0.522,0.305,0.647,0.564c0.28,0.594,0.337,1.252,0.543,1.872
			c0.063,0.204,0.144,0.422,0.298,0.586c0.438-1.122,0.954-1.242,1.399-2.22c-0.33-1.5-1.224-2.244-2.229-2.78
			c-0.351-0.184-3.624-1.823-4.188-1.729c-1.188,0.115-2.322,0.35-3.534,0.686c-0.132,0.016-0.308,0.028-0.369-0.104
			c-0.263-0.528,0.168-1.135,0.479-1.643c0.23-0.376,1.45-0.578,2.042-0.554c1.81,0.078,3.028,0.422,3.512,0.565
			c0.236,0.074,0.614,0.278,0.836,0.368c0.12,0.05,0.221,0.106,0.328,0.164c0.074,0.042,0.146-0.014,0.154-0.073
			c0.046-0.555-0.29-0.996-0.486-1.48c-0.644-0.288-1.315-0.469-1.987-0.708c-0.858-0.306-1.179-0.479-2.538-0.66
			c-0.466-0.06-0.614-0.036-1.061,0.074c-0.078,0.022-0.323,0.102-0.529,0.162c-0.015-0.259,0.126-0.437,0.231-0.584
			c0.336-0.496,0.818-0.849,1.198-1.296c0.256,0,0.518,0.048,0.77,0.025c0.847-0.066,1.645-0.037,1.98,0.018
			c0.546,0.095,0.689,0.33,1.514,0.617c0.16,0.06,0.372,0.168,0.504,0.168c0.061,0,0.004-0.427-0.034-0.574
			c-0.094-0.368,0.082-0.603-0.062-0.938c-0.042-0.1-0.228-0.292-0.732-0.479c-0.672-0.254-1.147-0.396-1.968-0.84
			c-0.39-0.192-1.588-0.48-2.376-0.219c-0.988,0.334-1.156,0.418-1.738,0.547c-0.804,1.245-1.275,2.666-1.854,4.041
			c-0.086,0.2-0.406,1.004-0.598,1.639c-0.141,0.447-0.296,1.054-0.326,1.242c-0.038,0.211-0.145,0.529-0.187,0.521
			c-0.781-0.156-3.972-0.792-4.874,0.139c-0.298,0.306-0.688,0.787-1.122,1.812c-0.859-0.511-1.38-0.778-2.063-0.75
			c-0.89,0.04-1.968,0.624-2.433,1.487c-0.102,0.192-1.38,2.893-1.281,5.303c0.14,1.363,0.63,2.07,1.38,3.111l1.886-0.004
			c0.034-0.014,0.074-0.054,0.074-0.078c-0.059-0.6-0.534-1.525-0.853-2.594c-0.193-0.906,0.141-2.64,0.427-3.947
			c0.025-0.123,0.025-0.213,0.172-0.246c0.244-0.068,0.397-0.057,0.777-0.227c0.48-0.214,0.637-0.298,1.171-0.256
			c0.063,0.004,0.126,0.096,0.073,0.146c-0.691,0.655-0.657,1.523-0.81,2.478c-0.052,0.546,0.64,3.188,1.342,4.728
			c0.496,0,0.935,0,1.512-0.004c0.062,0,0.103-0.065,0.086-0.151c-0.218-1.366-0.495-3.395-0.352-3.845
			c0.156-0.703,0.258-1.233,0.454-1.795c0.352,0.147,0.722,0.229,1.062,0.422c0.58,0.332,0.564,0.646,0.528,1.222
			c-0.054,0.964,0.042,1.136-0.104,1.688c-0.097,0.363-0.097,0.516-0.106,0.867c-0.012,0.488-0.018,1.07,0.112,1.416
			c0.031,0.072,0.04,0.176,0.168,0.176c0.47,0,0.75,0,1.298,0.004c0.12-1.688,0.212-1.537,0.348-2.357
			c0.006-0.023-0.016-1.098,0.166-1.622c0.103-0.278,0.307-0.66,0.521-0.856c0.441-0.401,0.766-0.438,1.516-0.14
			c-0.066,0.521-0.036,1.038-0.114,1.554c-0.146,0.92-0.479,1.738-0.737,2.633c-0.08,0.289-0.133,0.552-0.34,0.789H215.125"/>
	</defs>
	<clipPath id="SVGID_146_">
		<use xlink:href="#SVGID_145_"  overflow="visible"/>
	</clipPath>
	<g clip-path="url(#SVGID_146_)">
		<defs>
			<rect id="SVGID_147_" x="-236.072" y="-49.86" width="750" height="1334"/>
		</defs>
		<clipPath id="SVGID_148_">
			<use xlink:href="#SVGID_147_"  overflow="visible"/>
		</clipPath>
		<rect x="191.329" y="38.339" clip-path="url(#SVGID_148_)" fill="#FFFFFF" width="45.027" height="39.196"/>
	</g>
</g>
<g>
	<defs>
		<path id="SVGID_149_" d="M226.42,51.649c-0.292-0.2-0.582-0.368-0.886-0.521c-0.152,0.153-0.015,0.342-0.011,0.624
			c0.015,0.792,0.092,0.857,0.064,1.266c-0.024,0.41-0.164,2.66-0.22,3.374c0.506,0.38,1.096,0.562,1.646,0.902
			c0.074,0.04,0.145-0.019,0.152-0.082c0.138-1.423,0.492-2.574,0.277-3.95c-0.058-0.376-0.208-0.694-0.302-1.055
			C227.056,51.904,226.688,51.824,226.42,51.649"/>
	</defs>
	<clipPath id="SVGID_150_">
		<use xlink:href="#SVGID_149_"  overflow="visible"/>
	</clipPath>
	<g clip-path="url(#SVGID_150_)">
		<defs>
			<rect id="SVGID_151_" x="-236.072" y="-49.86" width="750" height="1334"/>
		</defs>
		<clipPath id="SVGID_152_">
			<use xlink:href="#SVGID_151_"  overflow="visible"/>
		</clipPath>
		<rect x="215.369" y="41.128" clip-path="url(#SVGID_152_)" fill="#FFFFFF" width="22.143" height="26.179"/>
	</g>
</g>
<g>
	<defs>
		<path id="SVGID_153_" d="M223.886,67.535c0.066-0.014,0.134-0.082,0.152-0.147c0.176-0.66,0.258-1.202,0.323-1.87
			c0.017-0.184,0.112-0.402-0.062-0.576c-0.322,0.162-0.586,0.286-0.922,0.408c-0.2,0.072-0.562,0.059-0.612,0.26
			c-0.096,0.362-0.15,0.524-0.224,0.885c-0.19,0.354-0.418,0.634-0.532,0.823c-0.04,0.066-0.048,0.222,0.066,0.218H223.886"/>
	</defs>
	<clipPath id="SVGID_154_">
		<use xlink:href="#SVGID_153_"  overflow="visible"/>
	</clipPath>
	<g clip-path="url(#SVGID_154_)">
		<defs>
			<rect id="SVGID_155_" x="-236.072" y="-49.86" width="750" height="1334"/>
		</defs>
		<clipPath id="SVGID_156_">
			<use xlink:href="#SVGID_155_"  overflow="visible"/>
		</clipPath>
		<rect x="211.983" y="54.941" clip-path="url(#SVGID_156_)" fill="#FFFFFF" width="22.42" height="22.594"/>
	</g>
</g>
<g>
	<defs>
		<path id="SVGID_157_" d="M192.72,63.875c-0.056,0.057-0.144,0.103-0.152,0.169c-0.13,1.188-0.64,1.92-1.044,2.729
			c-0.13,0.23-0.328,0.504-0.12,0.762c0.931-0.004,1.601,0.004,2.534,0c0.162-0.004,0.104-1.115,0.104-1.119
			c-0.002-0.398-0.026-0.811-0.008-1.309C193.764,64.775,192.82,64.025,192.72,63.875"/>
	</defs>
	<clipPath id="SVGID_158_">
		<use xlink:href="#SVGID_157_"  overflow="visible"/>
	</clipPath>
	<g clip-path="url(#SVGID_158_)">
		<defs>
			<rect id="SVGID_159_" x="-236.072" y="-49.86" width="750" height="1334"/>
		</defs>
		<clipPath id="SVGID_160_">
			<use xlink:href="#SVGID_159_"  overflow="visible"/>
		</clipPath>
		<rect x="181.314" y="53.875" clip-path="url(#SVGID_160_)" fill="#FFFFFF" width="22.738" height="23.662"/>
	</g>
</g>
<g>
	<defs>
		<path id="SVGID_161_" d="M242.955,28.534c-0.803,0.314-1.366,1.032-1.45,1.88c-0.33,3.304,2.472,11.466,4.198,15.068
			c0.468,0.98,0.619,1.484,0.655,2.356c0.086,2.378-1.823,6.59-3.082,8.886c-0.374-0.062-1.941-0.446-2.708-0.067
			c-0.899,0.441-1.533,1.213-1.897,2.123c-0.492-0.128-0.778-0.27-1.48-0.317c-0.642,0.012-0.859,0.056-1.72,0.497
			c-1.272,0.662-2.132,1.809-2.25,3.408c0.034,2.209,0.618,3.532,1.584,5.168h1.652c-0.12-0.504-0.658-3.203-0.82-4.069
			c-0.176-0.922,0.272-1.612,0.854-2.23c0.472-0.504,0.907-0.334,1.228-0.334c0.498,0,0.52,0.106,0.402,0.358
			c-0.467,0.952-0.582,1.566-0.521,3.029c0.128,0.918,0.426,2.164,0.734,3.177c0.027,0.08,0.151,0.09,0.24,0.073
			c0.033-0.008,1.304,0.005,1.312-0.004c0.136-0.09,0.094-0.287,0.078-0.447c-0.099-0.93-0.062-1.704-0.032-2.553
			c0.036-0.894,0.072-1.781,0.298-2.631c0.4-1.127,0.687-2.475,1.812-3.043c0.357-0.13,0.819-0.004,1.16,0.053
			c0.476,0.078,0.584,0.147,1.296,0.146c0.172-0.004,0.336-1.058,0.479-1.235c0.062-0.078,0.114-0.16,0.347-0.097
			c0.178,0.046,0.611,0.244,0.796,0.294c0.533,0.135,0.808,0.17,1.308,0.358c0.79,0.3,1.48,0.75,2.114,1.372
			c0.01,0.008,0.094-0.07,0.062-0.148c-0.242-0.65,0.078-1.609-0.43-1.945c-0.05-0.037-0.796-0.75-1.559-1.158
			c-0.388-0.209-0.865-0.244-1.1-0.622c-0.15-0.24-0.102-0.311-0.092-0.638c-0.046-0.517,0.038-0.975,0.234-1.035
			c0.418-0.121,0.598,0.121,1.22,0.379c0.857,0.414,1.592,0.922,1.976,1.233c0.108,0.124,0.25,0.341,0.314,0.288
			c0.258-0.206,0.37-0.41,0.529-0.693c0.118-0.209,0.116-0.328,0.156-0.59c0.012-0.141,0.017-0.25-0.027-0.309
			c-0.681-0.896-1.194-1.202-2.389-1.88c-0.078-0.044-0.563-0.294-0.718-0.366c-0.07-0.029-0.308-0.24-0.302-0.408
			c0.018-0.318,0.492-1.092,0.605-1.242c0.139-0.186,0.429-0.018,0.704,0.168c0.742,0.496,1.557,0.574,2.344,1.032
			c0.177,0.103,0.343,0.271,0.522,0.356c0.078,0.029,0.048-0.2,0.018-0.278c-0.212-0.526,0.091-0.856-0.216-1.246
			c-0.354-0.458-0.854-0.962-1.33-1.178c-0.609-0.224-0.981-0.37-1.525-0.56c-0.078-0.592-0.219-1.152-0.382-1.736
			c-0.104-0.366,0.382-0.223,0.626-0.256c0.869-0.122,2.934,0.552,3.439,0.867c0.09,0.059,0.326,0.117,0.322-0.031
			c-0.004-0.622-0.118-1.12-0.564-1.553c-0.304-0.295-0.714-0.709-1.565-1.012c-0.727-0.178-1.059-0.164-1.898-0.104
			c-0.609-0.048-0.876-0.13-1.29-0.314c-0.182-0.082-0.308-0.312-0.382-0.486c-0.208-0.506-0.574-0.924-0.694-1.464
			c0.46,0.06,0.834,0.05,1.433-0.026c0.354-0.046,0.531-0.082,1.098-0.112c0.966,0.082,2.148,0.44,2.811,0.658
			c0.449,0.15,0.836,0.482,1.325,0.53c0.048,0.002,0.15-0.116,0.139-0.128c-0.396-0.58-0.492-1.216-0.885-1.744
			c-0.5-0.11-0.995-0.262-1.462-0.45c-1.815-0.718-2.428-1.28-3.548-1.014c-0.584,0.14-1.088,0.05-1.649-0.016
			c-0.185-0.626-0.372-1.25-0.492-1.892c0.492,0.02,0.828,0.178,1.372-0.058c0.008-0.004,0.296-0.084,0.355-0.09
			c1.046-0.11,1.898,0.158,2.908,0.484c0.314,0.1,0.708,0.354,1.036,0.308c0.062-0.004,0.114-0.074,0.078-0.148
			c-0.312-0.66-0.576-1.342-1.062-1.894c-0.42-0.218-0.968-0.372-1.644-0.494c-0.736-0.09-1.364-0.02-1.97,0.012
			c-0.591,0.028-1.084-0.084-1.566-0.258c-0.312-0.466-0.632-0.984-0.66-1.564c0.562,0.074,0.818-0.028,1.37-0.228
			c0.266-0.094,1.248-0.138,1.082-0.138c1.152-0.002,1.532,0.124,1.536,0.126c0.464,0.162,0.624,0.122,0.864-0.006
			c-0.181-0.282-0.435-0.514-0.61-0.804c-0.7-1.19-1.574-1.426-2.878-1.353c-0.642,0.034-1.094,0.47-1.774,0.336
			c-0.063-0.01-0.094-0.07-0.082-0.152c0.16-0.936,0.299-1.476,0.738-2.058c0.304-0.298,0.606-0.45,1.066-0.47
			c4.126-0.186,8.277,4.184,10.884,11.154c2.754,7.384,2.156,14.113,1.374,18.924c0.414,0.21,0.859,0.296,1.313,0.328
			c0.864-3.294,1.089-6.43,0.906-10.114c-0.834-11.102-5.514-19.498-11.328-21.764C246.21,28.021,244.718,27.844,242.955,28.534"/>
	</defs>
	<clipPath id="SVGID_162_">
		<use xlink:href="#SVGID_161_"  overflow="visible"/>
	</clipPath>
	<g clip-path="url(#SVGID_162_)">
		<defs>
			<rect id="SVGID_163_" x="-236.072" y="-49.86" width="750" height="1334"/>
		</defs>
		<clipPath id="SVGID_164_">
			<use xlink:href="#SVGID_163_"  overflow="visible"/>
		</clipPath>
		<rect x="223.22" y="18.097" clip-path="url(#SVGID_164_)" fill="#FFFFFF" width="46.396" height="59.449"/>
	</g>
</g>
<g>
	<defs>
		<path id="SVGID_165_" d="M242.081,64.22c-0.246,1.284-0.286,2.353-0.13,3.155c0.023,0.143-0.036,0.169,0.102,0.16
			c0.06-0.004,0.836,0.009,1.47,0c0.378-0.668,0.382-1.436,0.606-2.17c0.094-0.321,0.366-0.359,0.792-0.338
			c0.368,0.049,1.41,0.916,1.806,1.236c0.244-0.336,0.214-0.948,0.12-1.475c-0.018-0.113-0.55-0.463-0.612-0.495
			c-0.626-0.324-1.038-0.8-1.724-0.664c-0.058-0.722,0.312-0.923,0.752-1.472c0.002-0.009,0.19-0.217,0.252-0.287
			c0.616,0.061,0.598,0.16,0.914,0.354c0.132,0.078,0.766,0.51,1.228,0.924c0.038,0.036,0.272,0.312,0.297,0.296
			c0.426-0.254,0.472-0.794,0.832-1.132c-0.595-1.397-2.229-2.157-3.446-2.766c-0.41-0.2-0.74-0.246-1.061-0.024
			C243.539,60.046,242.707,60.936,242.081,64.22"/>
	</defs>
	<clipPath id="SVGID_166_">
		<use xlink:href="#SVGID_165_"  overflow="visible"/>
	</clipPath>
	<g clip-path="url(#SVGID_166_)">
		<defs>
			<rect id="SVGID_167_" x="-236.072" y="-49.86" width="750" height="1334"/>
		</defs>
		<clipPath id="SVGID_168_">
			<use xlink:href="#SVGID_167_"  overflow="visible"/>
		</clipPath>
		<rect x="231.858" y="49.377" clip-path="url(#SVGID_168_)" fill="#FFFFFF" width="26.927" height="28.162"/>
	</g>
</g>
<g>
	<defs>
		<path id="SVGID_169_" d="M254.201,51.896c-0.223-0.065-0.456-0.132-0.646-0.271c-0.146,0.48-0.184,0.984-0.142,1.479
			c0.027,0.32,0.04,0.484,0.336,0.648c0.426,0.229,1.058,0.594,1.319,0.867c0.643,0.666,0.303-1.879,0.068-2.317
			C255.028,52.1,254.604,52.014,254.201,51.896"/>
	</defs>
	<clipPath id="SVGID_170_">
		<use xlink:href="#SVGID_169_"  overflow="visible"/>
	</clipPath>
	<g clip-path="url(#SVGID_170_)">
		<defs>
			<rect id="SVGID_171_" x="-236.072" y="-49.86" width="750" height="1334"/>
		</defs>
		<clipPath id="SVGID_172_">
			<use xlink:href="#SVGID_171_"  overflow="visible"/>
		</clipPath>
		<rect x="243.396" y="41.625" clip-path="url(#SVGID_172_)" fill="#FFFFFF" width="22.042" height="23.104"/>
	</g>
</g>
<g>
	<defs>
		<path id="SVGID_173_" d="M254.21,57.076c-0.061-0.07-0.778-0.562-0.918-0.654c-0.271-0.18-0.404-0.318-0.643-0.44
			c-0.086,0.23-0.107,0.326-0.197,0.591c-0.106,0.447-0.324,0.75-0.188,1.127c0.082,0.234,0.402,0.34,0.622,0.484
			c0.196,0.132,1.218,0.98,1.41,1.172c0.147-0.332,0.222-1.14,0.12-1.804C254.392,57.363,254.314,57.212,254.21,57.076"/>
	</defs>
	<clipPath id="SVGID_174_">
		<use xlink:href="#SVGID_173_"  overflow="visible"/>
	</clipPath>
	<g clip-path="url(#SVGID_174_)">
		<defs>
			<rect id="SVGID_175_" x="-236.072" y="-49.86" width="750" height="1334"/>
		</defs>
		<clipPath id="SVGID_176_">
			<use xlink:href="#SVGID_175_"  overflow="visible"/>
		</clipPath>
		<rect x="242.221" y="45.981" clip-path="url(#SVGID_176_)" fill="#FFFFFF" width="22.242" height="23.374"/>
	</g>
</g>
<g>
	<defs>
		<path id="SVGID_177_" d="M259.409,64.457c-0.156,0.564-0.332,1.057-0.435,1.433c-0.021,0.088-0.062,0.22-0.078,0.374
			c0.544,0.242,0.732,0.21,1.364,0.122c0.452,0.006,0.782,0.147,0.86,0.122c0.405-0.13,0.05-0.526-0.009-0.656
			c-0.023-0.062-0.792-1.628-1.319-2.294c-0.044-0.054-0.13,0.01-0.145,0.074C259.581,63.922,259.486,64.17,259.409,64.457"/>
	</defs>
	<clipPath id="SVGID_178_">
		<use xlink:href="#SVGID_177_"  overflow="visible"/>
	</clipPath>
	<g clip-path="url(#SVGID_178_)">
		<defs>
			<rect id="SVGID_179_" x="-236.072" y="-49.86" width="750" height="1334"/>
		</defs>
		<clipPath id="SVGID_180_">
			<use xlink:href="#SVGID_179_"  overflow="visible"/>
		</clipPath>
		<rect x="248.896" y="53.537" clip-path="url(#SVGID_180_)" fill="#FFFFFF" width="22.416" height="22.974"/>
	</g>
</g>
<g>
	<defs>
		<path id="SVGID_181_" d="M255.444,65.451c-0.25-0.031-0.556-0.096-0.708,0.097c-0.439,0.55-0.586,1.372-0.886,1.987
			c0.828,0.004,1.364,0,2.145,0c0.105,0,0.138-0.063,0.226-0.147c0.236-0.362,0.446-0.702,0.51-1.128
			c0.026-0.172-0.06-0.564-0.45-0.672C256.27,65.582,255.668,65.481,255.444,65.451"/>
	</defs>
	<clipPath id="SVGID_182_">
		<use xlink:href="#SVGID_181_"  overflow="visible"/>
	</clipPath>
	<g clip-path="url(#SVGID_182_)">
		<defs>
			<rect id="SVGID_183_" x="-236.072" y="-49.86" width="750" height="1334"/>
		</defs>
		<clipPath id="SVGID_184_">
			<use xlink:href="#SVGID_183_"  overflow="visible"/>
		</clipPath>
		<rect x="243.85" y="55.416" clip-path="url(#SVGID_184_)" fill="#FFFFFF" width="22.885" height="22.121"/>
	</g>
</g>
<g>
	<defs>
		<path id="SVGID_185_" d="M251.006,65.203c-0.546,0.011-1.136,0.269-1.266,0.889c-0.095,0.441-0.391,0.781-0.625,1.156
			c0.133,0.275,0.366,0.275,0.635,0.283c0.268,0.013,0.892,0.004,1.718,0.004c0.176-0.302,0.252-0.718,0.342-1.056
			c0.118-0.456,0.225-0.834,0.304-1.294c0.007-0.036-0.027-0.314-0.197-0.224C251.625,65.121,251.32,65.195,251.006,65.203"/>
	</defs>
	<clipPath id="SVGID_186_">
		<use xlink:href="#SVGID_185_"  overflow="visible"/>
	</clipPath>
	<g clip-path="url(#SVGID_186_)">
		<defs>
			<rect id="SVGID_187_" x="-236.072" y="-49.86" width="750" height="1334"/>
		</defs>
		<clipPath id="SVGID_188_">
			<use xlink:href="#SVGID_187_"  overflow="visible"/>
		</clipPath>
		<rect x="239.116" y="54.943" clip-path="url(#SVGID_188_)" fill="#FFFFFF" width="22.999" height="22.596"/>
	</g>
</g>
<g>
	<defs>
		<path id="SVGID_189_" d="M234.9,52.459c0.139-0.432,0.524-1.684,0.646-2.149c-0.267-0.284-0.49-0.821-0.561-1.2
			c-0.048-0.275-0.069-0.6-0.197-1.018c-0.021-0.068-0.122-0.154-0.133-0.148c-0.117,0.084-1.079,0.928-1.334,1.215
			c0.099,0.722,0.297,1.43,0.446,2.133c0.042,0.221,0.3,1.451,0.348,1.871c0.019,0.138,0.066,0.168,0.154,0.162
			c0.206-0.022,0.396-0.112,0.494-0.24C234.942,52.826,234.846,52.646,234.9,52.459"/>
	</defs>
	<clipPath id="SVGID_190_">
		<use xlink:href="#SVGID_189_"  overflow="visible"/>
	</clipPath>
	<g clip-path="url(#SVGID_190_)">
		<defs>
			<rect id="SVGID_191_" x="-236.072" y="-49.86" width="750" height="1334"/>
		</defs>
		<clipPath id="SVGID_192_">
			<use xlink:href="#SVGID_191_"  overflow="visible"/>
		</clipPath>
		<rect x="223.322" y="37.943" clip-path="url(#SVGID_192_)" fill="#FFFFFF" width="22.225" height="25.381"/>
	</g>
</g>
<g>
	<defs>
		<path id="SVGID_193_" d="M237.392,44.322c-0.189-0.508-0.82-1.508-1.158-1.95c-0.365-0.472-0.491-1.308-0.536-1.85
			c-0.006-0.06-0.073-0.112-0.151-0.08c-0.188,0.08-0.332,0.134-0.526,0.172c-0.12,0.024-0.598,0.13-0.7,0.142
			c-0.248,0.034-0.51,0.028-0.75,0.096c0.58,0.84,1.334,2.002,1.792,3.212c0.297,0.784,0.444,1.306,0.614,1.874
			c0.12,0.43,0.232,0.895,0.546,1.458c0.034,0.063,0.618,1.354,0.676,1.595c0.017,0.065,0.108,0.14,0.145,0.073
			c0.174-0.334,0.312-0.874,0.438-1.14c0.112-0.242,0.215-0.372,0.477-0.658c0.004-0.52-0.185-1.014-0.402-1.472
			C237.674,45.408,237.488,44.576,237.392,44.322"/>
	</defs>
	<clipPath id="SVGID_194_">
		<use xlink:href="#SVGID_193_"  overflow="visible"/>
	</clipPath>
	<g clip-path="url(#SVGID_194_)">
		<defs>
			<rect id="SVGID_195_" x="-236.072" y="-49.86" width="750" height="1334"/>
		</defs>
		<clipPath id="SVGID_196_">
			<use xlink:href="#SVGID_195_"  overflow="visible"/>
		</clipPath>
		<rect x="223.57" y="30.432" clip-path="url(#SVGID_196_)" fill="#FFFFFF" width="24.687" height="28.658"/>
	</g>
</g>
<g>
	<defs>
		<path id="SVGID_197_" d="M241.621,45.458c-0.078-0.48-0.057-0.952-0.234-1.402c-0.548,0.05-0.558,0.126-0.954,0.186
			c-0.32,0.048-0.428-0.01-1.023,0.146c0.117,0.41,0.201,0.68,0.361,1.074c0.116,0.282,0.372,1.086,0.396,2.315
			c0,0.059,0.09,0.204,0.102,0.196c0.464-0.324,0.702-0.96,1.2-1.12C241.458,46.38,241.698,45.941,241.621,45.458"/>
	</defs>
	<clipPath id="SVGID_198_">
		<use xlink:href="#SVGID_197_"  overflow="visible"/>
	</clipPath>
	<g clip-path="url(#SVGID_198_)">
		<defs>
			<rect id="SVGID_199_" x="-236.072" y="-49.86" width="750" height="1334"/>
		</defs>
		<clipPath id="SVGID_200_">
			<use xlink:href="#SVGID_199_"  overflow="visible"/>
		</clipPath>
		<rect x="229.409" y="34.056" clip-path="url(#SVGID_200_)" fill="#FFFFFF" width="22.228" height="23.918"/>
	</g>
</g>
<g>
	<defs>
		<path id="SVGID_201_" d="M240.466,41.592c-0.006-0.342-0.019-0.606-0.154-0.988c-0.174-0.39-0.67-0.916-1.067-1.316
			c-0.354-0.046-0.492,0.028-0.656,0.014c-0.384-0.036-0.603-0.094-0.984,0c-0.384,0.094-0.164,0.4,0.017,0.714
			c0.622,0.702,0.836,1.458,1.062,2.394c0.016,0.066,0.098,0.15,0.152,0.148c0.527-0.026,0.766-0.354,1.552-0.342
			C240.72,42.224,240.472,41.833,240.466,41.592"/>
	</defs>
	<clipPath id="SVGID_202_">
		<use xlink:href="#SVGID_201_"  overflow="visible"/>
	</clipPath>
	<g clip-path="url(#SVGID_202_)">
		<defs>
			<rect id="SVGID_203_" x="-236.072" y="-49.86" width="750" height="1334"/>
		</defs>
		<clipPath id="SVGID_204_">
			<use xlink:href="#SVGID_203_"  overflow="visible"/>
		</clipPath>
		<rect x="227.392" y="29.25" clip-path="url(#SVGID_204_)" fill="#FFFFFF" width="23.168" height="23.307"/>
	</g>
</g>
<g>
	<defs>
		<path id="SVGID_205_" d="M229.542,32.38c-0.072,0.256-0.156,0.464,0.078,0.904c0.936,0.986,0.983,0.996,1.55,2.132
			c0.109,0.222,0.804,1.322,1.122,2.636c0.147,0.596,0.292,0.782,0.855,0.758c0.429-0.014,0.898,0.062,1.256,0.122
			c0.126,0.018,0.106-0.176,0.11-0.224c0.094-0.796-0.476-1.8-0.514-1.874c-0.17-0.352-0.338-0.706-0.431-1.082
			c0.108,0.02,0.414,0.056,1.284,0.104c0.21,0.012,0.668-0.034,0.884-0.104c0.11-0.036,0.076,0,0.101,0.046
			c0.054,0.182,0.078,0.36,0.2,0.548c0.304,0.536,0.59,1.022,0.905,1.544c0.276-0.03,0.438-0.11,0.664-0.154
			c0.288-0.052,0.57-0.074,0.862-0.147c0.208-0.056,0.158-0.122,0.15-0.152c-0.118-0.336-0.232-0.654-0.364-0.958
			c-0.164-0.386-0.395-0.748-0.664-1.14c-0.01-0.016,0.122-0.172,0.172-0.196c0.145-0.062,0.474-0.028,0.59-0.038
			c1.202-0.024,1.398-0.076,1.41-0.08c0.466-0.058,0.88-0.226,1.122-0.358c0.058-0.032,0.158-0.118,0.144-0.136
			c-0.09-0.164-0.188-0.324-0.294-0.474c-0.092-0.126-0.686-0.752-0.936-0.898c-0.172-0.1-0.414,0.056-0.642,0.102
			C236.142,33.866,232.413,33.41,229.542,32.38"/>
	</defs>
	<clipPath id="SVGID_206_">
		<use xlink:href="#SVGID_205_"  overflow="visible"/>
	</clipPath>
	<g clip-path="url(#SVGID_206_)">
		<defs>
			<rect id="SVGID_207_" x="-236.072" y="-49.86" width="750" height="1334"/>
		</defs>
		<clipPath id="SVGID_208_">
			<use xlink:href="#SVGID_207_"  overflow="visible"/>
		</clipPath>
		<rect x="219.466" y="22.38" clip-path="url(#SVGID_208_)" fill="#FFFFFF" width="31.565" height="26.553"/>
	</g>
</g>
<g>
	<defs>
		<path id="SVGID_209_" d="M228.47,27.443c-0.238-1.05-0.278-1.256-0.412-1.756c-0.166-0.654-0.229-1.466-0.576-2.024
			c-0.443,0.23-0.616,0.234-1.027,0.308c-0.404,0.122-0.765,0.222-0.746,0.342c0.202,1.332,0.838,3.236,0.912,5.362
			c0.016,0.512-0.07,0.962,0.058,1.464c0.028,0.1,0.134,0.192,0.234,0.242c0.065,0.034,0.434,0.114,0.502,0.14
			c0.472,0.168,0.91,0.432,1.39,0.6c0.096,0.034,0.216,0.028,0.324,0.002c0.065-0.016,0.107-0.074,0.086-0.156
			c-0.19-0.628-0.212-1.41-0.326-2.05C228.806,29.443,228.661,28.452,228.47,27.443"/>
	</defs>
	<clipPath id="SVGID_210_">
		<use xlink:href="#SVGID_209_"  overflow="visible"/>
	</clipPath>
	<g clip-path="url(#SVGID_210_)">
		<defs>
			<rect id="SVGID_211_" x="-236.072" y="-49.86" width="750" height="1334"/>
		</defs>
		<clipPath id="SVGID_212_">
			<use xlink:href="#SVGID_211_"  overflow="visible"/>
		</clipPath>
		<rect x="215.708" y="13.664" clip-path="url(#SVGID_212_)" fill="#FFFFFF" width="23.513" height="28.482"/>
	</g>
</g>
<g>
	<defs>
		<path id="SVGID_213_" d="M231.018,39.826c-0.233-0.398-0.443-0.736-0.82-1.034c-0.031,0.064-0.207,0.382-0.228,0.42
			c-0.229,0.422-0.468,0.836-0.756,1.226c0.104,0.286,0.273,0.582,0.436,0.836c0.202,0.31,0.252,0.414,0.521,0.802
			c0.054,0.082,0.302,0.53,0.355,0.584c0.112-0.186,0.181-0.376,0.312-0.532c0.078-0.086,0.312-0.274,0.382-0.376
			c0.146-0.22,0.18-0.378,0.246-0.612c0.076-0.264,0.088-0.38-0.148-0.678C231.128,40.22,231.094,39.958,231.018,39.826"/>
	</defs>
	<clipPath id="SVGID_214_">
		<use xlink:href="#SVGID_213_"  overflow="visible"/>
	</clipPath>
	<g clip-path="url(#SVGID_214_)">
		<defs>
			<rect id="SVGID_215_" x="-236.072" y="-49.86" width="750" height="1334"/>
		</defs>
		<clipPath id="SVGID_216_">
			<use xlink:href="#SVGID_215_"  overflow="visible"/>
		</clipPath>
		<rect x="219.214" y="28.792" clip-path="url(#SVGID_216_)" fill="#FFFFFF" width="22.301" height="23.869"/>
	</g>
</g>
<g>
	<defs>
		<path id="SVGID_217_" d="M233.478,45.58c0.034-0.172,0.048-0.348,0.024-0.526c-0.024-0.144-0.312-0.756-0.38-0.912
			c-0.208-0.46-0.435-0.868-0.812-1.206c-0.054-0.052-0.312,0.8-0.452,1.074c-0.172,0.342-0.226,0.276-0.508,1.034
			c0.316,0.392,0.586,0.84,0.818,1.282c0.092,0.18,0.142,0.379,0.244,0.558c0.056,0.086,0.277,0.388,0.336,0.462
			c0.098-0.094,0.142-0.348,0.226-0.462C233.102,46.714,233.424,45.866,233.478,45.58"/>
	</defs>
	<clipPath id="SVGID_218_">
		<use xlink:href="#SVGID_217_"  overflow="visible"/>
	</clipPath>
	<g clip-path="url(#SVGID_218_)">
		<defs>
			<rect id="SVGID_219_" x="-236.072" y="-49.86" width="750" height="1334"/>
		</defs>
		<clipPath id="SVGID_220_">
			<use xlink:href="#SVGID_219_"  overflow="visible"/>
		</clipPath>
		<rect x="221.35" y="32.934" clip-path="url(#SVGID_220_)" fill="#FFFFFF" width="22.164" height="24.412"/>
	</g>
</g>
<g>
	<defs>
		<path id="SVGID_221_" d="M231.866,51.281c-0.109-0.3-0.331-1.6-0.434-2.699c-0.13-0.342-0.55-0.847-0.906-1.236
			c-0.254,0.35-0.521,0.698-0.712,1.086c-0.082,0.168-0.058,0.344-0.008,0.521c0.012,0.037,0.63,1.771,0.769,2.188
			c0.161,0.508,0.186,1.072,0.443,1.55c0.258-0.344,0.57-0.636,0.792-1.006C231.884,51.567,231.936,51.49,231.866,51.281"/>
	</defs>
	<clipPath id="SVGID_222_">
		<use xlink:href="#SVGID_221_"  overflow="visible"/>
	</clipPath>
	<g clip-path="url(#SVGID_222_)">
		<defs>
			<rect id="SVGID_223_" x="-236.072" y="-49.86" width="750" height="1334"/>
		</defs>
		<clipPath id="SVGID_224_">
			<use xlink:href="#SVGID_223_"  overflow="visible"/>
		</clipPath>
		<rect x="219.76" y="37.346" clip-path="url(#SVGID_224_)" fill="#FFFFFF" width="22.139" height="25.346"/>
	</g>
</g>
<g>
	<defs>
		<path id="SVGID_225_" d="M196.214,5.796c0.506-0.046,1.174,0.352,1.574,0.516c0.439,0.18,1.033,0.452,1.565,0.854
			c0.668,0.502,1,1.22,1.34,1.94c0.526-0.048,0.969-0.056,1.557,0.026c0.842,0.106,1.636,0.352,2.416,0.644
			c0.076,0.03,0.315,0.16,0.368,0.18c1.208-0.85,2.754-1.328,4.245-1.144c0.148,0.01,0.181,0.002,0.187-0.16
			c0.068-0.622,0.649-1.464,0.899-1.79c0.517-0.686,1.015-0.952,1.746-1.098c0.866-0.174,2.202,0.228,3.456,0.824
			c0.893,0.428,1.267,1.526,1.341,1.72c0.277,0.714,0.228,1.692,0.113,2.78c-0.06,0.58-0.162,1.244-0.184,1.35
			c-0.141,0.822-0.975,1.19-1.528,1.384c-0.058,0.022-0.268,0.068-0.3,0.178c-0.236,0.844-0.066,1.996-0.204,2.91
			c-0.084,0.536-0.318,1.028-0.378,1.57c0.422-0.11,0.738-0.532,1.238-0.412c-0.366,2.17-0.926,1.896-1.422,2.954
			c-0.312,0.67-0.528,1.512-1.047,2.146c-0.168,0.188-0.479,0.456-1.046,0.77c-0.222,0.124,0.051,0.38,0.152,0.406
			c0.74,0.168,1.23,0.276,1.95,0.406c0.258,0.044,1.716,0.304,2.45,0.526c0.804,0.242,1.596,0.618,2.266,0.946
			c0.208,0.102-0.058,0.66-0.26,1.22c-0.944-0.454-1.634-0.771-2.634-1.052c-0.742-0.23-1.836-0.426-2.19-0.51
			c-0.478-0.108-1.036-0.222-1.508-0.33c-0.038,0.332-0.248,1.182-0.242,1.302c0.168,0.07,0.282,0.108,0.336,0.128
			c0.564,0.192,1.092,0.458,1.64,0.696c0.414,0.176,3.168,1.514,4.103,2.07c-0.084,0.198-0.14,0.444-0.187,0.668
			c-0.042,0.254-0.14,0.472-0.292,0.448c-0.199-0.03-0.332-0.078-0.508-0.178c-0.562-0.318-2.332-1.314-2.733-1.548
			c-1.129-0.608-1.547-0.82-2.778-1.28c-0.336,0.404-0.54,0.896-1.008,1.178c-0.309,0.188-1.526-0.882-2.29-1.234
			c-0.557-0.258-1.534-0.564-2.185-0.646c-0.226-0.03-0.264-0.31-0.336-0.584c-0.13-0.508-0.239-1.102-0.094-1.176
			c0.804-0.406,1.198-1.146,1.234-1.614c0.016-0.164,0.094-0.252,0.222-0.21c0.278,0.082,0.52,0.348,0.902,0.062
			c0.315-0.238,0.438-0.632,0.386-0.992c-0.062-0.374-0.286-0.66-0.62-0.774c-1.85-0.636-3.764-0.578-5.574,0.106
			c-0.536,0.204-0.483,0.852-0.338,1.356c0.198,0.668,0.975,0.394,1.38,0.112c0.212-0.144-0.06,0.466,0.225,0.974
			c0.426,0.762,1.111,0.914,1.117,1.07c0.021,0.53-0.058,0.576-0.104,0.922c-0.062,0.392-0.056,0.738-0.498,0.818
			c-1.028,0.186-1.97,0.56-2.93,0.924c-0.553,0.21-1.057,0.754-1.578,0.758c-0.444,0.008-0.71-0.72-1.048-0.854
			c-0.334-0.126-0.358-0.19-0.96,0.04c-1.868,0.704-4.324,1.912-6.057,2.97c-0.376-0.364-0.308-0.868-0.41-1.316
			c1.962-1.262,4.078-2.234,6.21-3.22c0.179-0.082,0.053-0.75-0.084-0.936c-0.077-0.106-1.233-0.012-3.539,0.566
			c-1.574,0.39-3.164,1.128-3.259,1.168c-0.086,0.036-0.186-0.184-0.202-0.298c-0.05-0.328-0.327-0.773-0.071-0.91
			c1.116-0.594,2.328-0.972,3.518-1.286c1.208-0.318,2.39-0.572,3.596-0.758c-0.018-0.088-0.054-0.408-0.084-0.482
			c-0.462-1.164-1.493-2.054-2.357-2.992c-0.19-0.204-0.362-0.46-0.402-0.728c-0.062-0.39-0.342-1.004-0.21-1.13
			c0.168-0.162,0.3,0.072,0.69,0.182c0.054,0.014,0.317,0.05,0.392,0.05c-0.086-0.664-0.214-1.304-0.3-1.976
			c-0.103-0.788-0.056-2.032,0.078-2.988c0.021-0.178,0.046-0.244-0.12-0.452c-0.128-0.164-0.908-0.562-1.01-0.584
			c-0.41-0.074-0.57-0.184-0.778-0.582c-0.41-0.79-1.05-1.488-1.022-2.378c0.022-0.876,0.358-1.724,0.704-2.544
			c0.272-0.652,1.061-0.708,1.641-1.056C195.06,6.1,195.678,5.846,196.214,5.796z M202.577,13.208
			c0.399-0.576,0.695-1.12,1.144-1.65c0.08-0.09,0.062-0.202-0.066-0.224c-0.39-0.064-0.726-0.096-1.062,0.004
			c-0.406,0.116-0.912,0.412-1.477,0.822c-0.544,0.394-0.913,0.702-0.913,1.22c0.122-0.006,0.8-0.016,1.008,0
			C201.974,13.432,202.264,13.667,202.577,13.208z M196.917,14.916c-0.12,0.01-0.112,0.208-0.068,0.26
			c0.294,0.354,0.682,0.628,1.114,0.844c0.278,0.138,0.284,0.526,0.454,0.732c0.328,0.404,0.846,0.733,1.54,0.656
			c0.46-0.052,0.554-0.084,0.848-0.284c0.138-0.098,0.164,0.02,0.178,0.132c0.068,0.414,0.093,0.894,0.068,1.298
			c-0.012,0.246,0.078,1.618-0.6,1.734c-0.507,0.176-1.261,0.65-1.629,1.164c-0.29,0.41-0.544,1.45-0.073,1.712
			c0.388,0.214,0.722-0.426,1.384-0.59c0.468-0.12,0.446-0.504,0.75-0.954c0.288-0.426,1.07-0.65,1.134-0.926
			c0.044-0.186-0.006-0.39,0.006-0.582c0.12-1.664,0.202-1.894,0.426-3.02c0.026-0.148,0.074-1.208,0.076-1.328
			c0.002-0.428-0.363-0.812-0.783-0.902c-0.129-0.026-0.488-0.142-1.026-0.054c-0.42,0.066-0.96,0.04-1.364,0.018
			C198.546,14.788,197.714,14.855,196.917,14.916z M208.234,14.87c-0.531,0.154-0.924,0.568-0.97,0.79
			c-0.018,0.096,0.036,0.606,0.032,0.742c-0.008,0.282,0.06,0.556,0.09,0.832c0.026,0.258,0.02,0.519,0.074,0.772
			c0.176,0.778,0.275,1.56,0.275,2.364c0.505,0.396,0.75,0.392,1.032,0.674c0.304,0.308,0.504,0.7,0.645,1.136
			c0.762,0.214,1.479,0.698,2.1,1.192c0.12-0.072,0.634-0.888,0.796-1.184c0.032-0.054,0.166-0.286,0.198-0.336
			c-0.542-0.47-1.344-0.572-1.938-0.928c-0.058-0.036-0.283-0.17-0.348-0.23c-0.358-0.374-0.474-1.172-1.132-1.252
			c-0.092-0.012-0.21-0.054-0.223-0.224c-0.033-0.386-0.254-1.792-0.283-2.076c-0.015-0.184-0.034-0.322-0.053-0.514
			c-0.004-0.048,0.024-0.07,0.062-0.04c0.464,0.63,1.13,0.704,1.521,0.728c0.604,0.036,1.261-0.264,1.54-0.812
			c0.095-0.084,0.135-0.46,0.398-0.561c0.326-0.122,0.698-0.312,0.942-0.538c0.071-0.07,0.237-0.368,0.281-0.466
			c0.03-0.076-0.02-0.144-0.08-0.152c-0.598-0.062-1.182-0.076-1.768-0.054c-0.422,0.016-1.536,0.004-1.696-0.008
			c-0.27-0.018-0.604-0.002-0.861,0.024C208.764,14.762,208.346,14.84,208.234,14.87z M215.4,11.052
			c0.263-0.994,0.364-2.27-0.122-3.048c-0.298-0.43-0.604-0.484-1.424-0.678c-0.672-0.158-1.508-0.046-1.903,0.512
			c-0.379,0.536-0.912,1.244-0.729,1.924c1.2,0.448,1.748,1.824,2.986,2.124C214.674,12,215.289,11.483,215.4,11.052z
			 M208.789,25.624c0.168,0.046,0.386,0.102,0.554,0.16c0.386,0.126,0.302,0.174,0.5,0.252c0.364,0.14,0.77,0.252,1.136,0.338
			c0.01-0.122,0.019-0.268,0.048-0.39c0.072-0.268,0.219-0.41,0.068-0.74c-0.028-0.064-0.272-0.076-0.436-0.056
			c-0.265,0.03-0.652-0.076-0.969-0.022c-0.074,0.014-0.204,0.054-0.336,0.08C209.18,25.282,208.78,25.366,208.789,25.624z
			 M199.167,25.275c-0.099,0.064-0.206,0.134-0.176,0.346c0.014,0.064,0.044,0.21,0.065,0.27c0.019,0.05,0.026,0.232,0.162,0.482
			c0.5-0.168,0.668-0.292,1.034-0.436c0.136-0.056,0.304-0.074,0.43-0.15c0.182-0.108,0.368-0.288,0.506-0.484
			c-0.348-0.106-0.682-0.174-1.067-0.156C199.764,25.167,199.411,25.12,199.167,25.275z M198.888,9.788
			c0.15-0.058,0.126-0.238,0.098-0.354c-0.34-1.314-0.731-1.336-1.418-1.7c-0.447-0.208-0.812-0.32-1.222-0.248
			c-0.648,0.112-1.892,0.514-2.286,1.494c-0.112,0.278-0.178,0.956,0.227,1.718c0.401,0.746,1.079,1.194,1.582,1.512
			c0.22,0.14,0.332-0.176,0.386-0.28c0.072-0.156,0.792-0.866,1.1-1.124C197.762,10.459,198.81,9.815,198.888,9.788z
			 M209.892,13.062c0.318-0.172,0.017-0.712-0.246-0.8c-0.235-0.084-0.428-0.29-0.62-0.528c-0.122-0.156-0.319-0.344-0.521-0.396
			c-0.802-0.214-1.139-0.258-1.65-0.156c-0.156,0.034-0.534,0.09-0.422,0.24c0.062,0.078,0.184,0.088,0.309,0.268
			c0.134,0.196,0.449,0.22,0.676,0.332c0.304,0.15,0.34,0.77,0.414,1.064c0.031,0.136,0.17,0.156,0.354,0.172
			c0.26,0.018,0.97,0.022,1.148-0.09C209.491,13.062,209.728,13.151,209.892,13.062z"/>
	</defs>
	<clipPath id="SVGID_226_">
		<use xlink:href="#SVGID_225_"  overflow="visible"/>
	</clipPath>
	<g clip-path="url(#SVGID_226_)">
		<defs>
			<rect id="SVGID_227_" x="-236.072" y="-49.86" width="750" height="1334"/>
		</defs>
		<clipPath id="SVGID_228_">
			<use xlink:href="#SVGID_227_"  overflow="visible"/>
		</clipPath>
		<rect x="180.101" y="-4.277" clip-path="url(#SVGID_228_)" fill="#FFFFFF" width="48.944" height="45.339"/>
	</g>
</g>
<g>
</g>
<g>
</g>
<g>
</g>
<g>
</g>
<g>
</g>
<g>
</g>
</svg>
