<?xml version="1.0" encoding="utf-8"?>
<!-- Generator: Adobe Illustrator 18.1.1, SVG Export Plug-In . SVG Version: 6.00 Build 0)  -->
<svg version="1.1" xmlns="http://www.w3.org/2000/svg" xmlns:xlink="http://www.w3.org/1999/xlink" x="0px" y="0px"
	 viewBox="0 0 298 302.4" enable-background="new 0 0 298 302.4" xml:space="preserve">
<g id="cirkel">
	<g>
		<g opacity="0.24" enable-background="new    ">
			<g>
				<g>
					<path d="M266.9,60.3c-23.7-31.5-58.2-51.8-97.2-57.3c-6.9-1-13.8-1.5-20.7-1.5c-22.2,0-43.6,4.9-63.6,14.5
						C40.8,37.6,10.1,79.6,3.2,128.5C-8.1,209,48.2,283.7,128.7,295c6.9,1,13.8,1.5,20.7,1.5c16.9,0,33.5-2.9,49.3-8.6l48.2,12.8
						c1.6,0.4,3.2,0.6,4.8,0.6c9.1,0,16.2-7.1,16.4-16.6l1-49.8c13.8-19.2,22.8-41.8,26.1-65.4C300.7,130.6,290.6,91.8,266.9,60.3z
						 M281.3,167.6c-3.1,22-11.7,43-24.8,60.8l-1.3,1.8l-1.1,54.3c0,1.9-0.8,2.8-2.3,2.8c-0.4,0-0.8-0.1-1.2-0.2L198,273.2l-2.1,0.8
						c-14.9,5.6-30.6,8.4-46.5,8.4c-6.2,0-12.5-0.4-18.7-1.3C57.8,270.9,6.9,203.3,17.1,130.5c6.2-44.3,34-82.3,74.4-101.7
						c18.1-8.7,37.5-13.1,57.5-13.1c6.2,0,12.5,0.4,18.7,1.3c35.3,5,66.5,23.4,88,51.8C277.2,97.2,286.2,132.3,281.3,167.6z"/>
				</g>
			</g>
		</g>
	</g>
</g>
<g id="mond">
	<g>
		<defs>
			<path id="SVGID_1_" d="M207.2,162.1H92.3c-3.1,0-5.6,2.5-5.6,5.6c0,41.3,31.7,62.9,63,62.9c31.3,0,63-21.6,63-62.9
				C212.7,164.5,210.2,162.1,207.2,162.1 M149.7,219.4c-23.6,0-49-14.5-51.7-46.2h103.3C198.7,204.9,173.3,219.4,149.7,219.4"/>
		</defs>
		<use xlink:href="#SVGID_1_"  overflow="visible" fill-rule="evenodd" clip-rule="evenodd"/>
		<clipPath id="SVGID_2_">
			<use xlink:href="#SVGID_1_"  overflow="visible"/>
		</clipPath>
	</g>
</g>
<g id="Layer_half_masker">
	<path d="M207.2,162.1H92.3c-3.1,0-5.6,2.5-5.6,5.6c0,15.1,4.3,27.6,11.2,37.3c0.3,0.6,0.7,1.2,1.2,1.6c3.4,4.5,7.4,8.3,11.8,11.6
		c-1-1-1.6-2.4-1.6-3.9c0-3.1,2.5-5.6,5.6-5.6c0.8,0,1.5,0.2,2.2,0.5c0.2,0.1,0.4,0.2,0.5,0.3c0,0,0,0-0.1,0c-3.7-2.7-7-5.9-9.9-9.7
		c-0.2-0.3-0.4-0.6-0.7-0.9c-4.8-6.8-8.1-15.3-9-25.6h103.3c-0.9,10.2-4.1,18.6-8.8,25.3c-0.4,0.4-0.8,0.9-1,1.4
		c-2.8,3.7-6.1,6.8-9.6,9.4c0.8-0.4,1.7-0.6,2.6-0.6c1.7,0,3.3,0.8,4.3,2.1c0.8,1,1.3,2.2,1.3,3.5c0,0.2,0,0.3,0,0.5
		c0,0.1,0,0.2,0,0.2c0,0.3-0.1,0.6-0.2,0.9c0,0,0,0.1,0,0.1c-0.1,0.3-0.2,0.6-0.4,0.9c0,0,0,0.1-0.1,0.1c-0.2,0.3-0.3,0.5-0.5,0.8
		c0,0-0.1,0.1-0.1,0.1c-0.1,0.1-0.2,0.2-0.3,0.4c0,0,0.1-0.1,0.1-0.1c4.5-3.3,8.5-7.2,12-11.7c0.4-0.4,0.7-0.8,1-1.3
		c7-9.8,11.3-22.3,11.3-37.5C212.7,164.5,210.2,162.1,207.2,162.1z"/>
</g>
<g id="mond_niet_masker">
	<g>
		<path d="M102.9,196.9c1.7,0,3.2,0.7,4.2,1.9c-4.8-6.8-8.1-15.3-9-25.6h103.3c-0.9,10.2-4.1,18.7-8.8,25.4c1-1,2.4-1.7,4-1.7
			c3.1,0,5.6,2.5,5.6,5.6c0,1-0.2,1.9-0.7,2.6c7-9.8,11.3-22.3,11.3-37.5c0-3.1-2.5-5.6-5.6-5.6H92.3c-3.1,0-5.6,2.5-5.6,5.6
			c0,15.1,4.3,27.6,11.2,37.3c-0.4-0.7-0.6-1.6-0.6-2.4C97.3,199.4,99.8,196.9,102.9,196.9z"/>
	</g>
</g>
<g id="oog_rechts_rond">
	<g>
		<path d="M185.8,137.3c5,0,9.2-1.8,12.7-5.4c3.5-3.3,5.3-7.5,5.3-12.5c0-5.2-1.8-9.5-5.3-12.9c-3.4-3.4-7.7-5.1-12.7-5.1
			c-5,0-9.3,1.7-13,5.1c-3.4,3.4-5.2,7.7-5.2,12.9c0,5,1.7,9.1,5.2,12.5C176.5,135.5,180.8,137.3,185.8,137.3z"/>
	</g>
</g>
<g id="oog_rechts_hartje_masker">
	<g>
		<path d="M198.5,106.5c-3.4-3.4-7.7-5.1-12.7-5.1c-5,0-9.3,1.7-13,5.1c-3.4,3.4-5.2,7.7-5.2,12.9c0,5,1.7,9.1,5.2,12.5
			c3.6,3.6,8,5.4,13,5.4c5,0,9.2-1.8,12.7-5.4c3.5-3.3,5.3-7.5,5.3-12.5C203.8,114.2,202,109.9,198.5,106.5z M185.8,136.8
			c-3.5,0-16.7-12.5-16.7-21.8c0-9.2,15.3-10.4,16.7-1.5c2.1-8.9,16.7-7.7,16.7,1.5C202.5,124.2,188.7,136.8,185.8,136.8z"/>
	</g>
</g>
<g id="oog_rechts_knipper_masker">
	<g>
		<path d="M198.5,106.5c-3.4-3.4-7.7-5.1-12.7-5.1c-5,0-9.3,1.7-13,5.1c-3.4,3.4-5.2,7.7-5.2,12.9c0,5,1.7,9.1,5.2,12.5
			c3.6,3.6,8,5.4,13,5.4c5,0,9.2-1.8,12.7-5.4c3.5-3.3,5.3-7.5,5.3-12.5C203.8,114.2,202,109.9,198.5,106.5z M198.2,125.7
			c-1.4,0-2.8-0.6-3.9-1.9c-2.3-2.6-5.3-4.1-8.5-4.1c-3.2,0-6.2,1.5-8.5,4.1c-2.2,2.5-5.7,2.5-7.8,0c-2.2-2.5-2.2-6.5,0-9
			c4.4-5,10.2-7.8,16.4-7.8c6.2,0,12,2.8,16.4,7.8c2.2,2.5,2.2,6.5,0,9C201.1,125.1,199.6,125.7,198.2,125.7z"/>
	</g>
</g>
<g id="oog_rinks_rond_copy">
	<g>
		<path d="M112.5,137.3c5,0,9.2-1.8,12.7-5.4c3.5-3.3,5.3-7.5,5.3-12.5c0-5.2-1.8-9.5-5.3-12.9c-3.4-3.4-7.7-5.1-12.7-5.1
			c-5,0-9.3,1.7-13,5.1c-3.4,3.4-5.2,7.7-5.2,12.9c0,5,1.7,9.1,5.2,12.5C103.2,135.5,107.5,137.3,112.5,137.3z"/>
	</g>
</g>
<g id="oog_links_hartje_masker_copy">
	<g>
		<path d="M125.2,106.5c-3.4-3.4-7.7-5.1-12.7-5.1c-5,0-9.3,1.7-13,5.1c-3.4,3.4-5.2,7.7-5.2,12.9c0,5,1.7,9.1,5.2,12.5
			c3.6,3.6,8,5.4,13,5.4c5,0,9.2-1.8,12.7-5.4c3.5-3.3,5.3-7.5,5.3-12.5C130.5,114.2,128.7,109.9,125.2,106.5z M112.5,136.8
			c-3.5,0-16.7-12.5-16.7-21.8c0-9.2,15.3-10.4,16.7-1.5c2.1-8.9,16.7-7.7,16.7,1.5C129.2,124.2,115.3,136.8,112.5,136.8z"/>
	</g>
</g>
<g id="oog_links_knipper_masker_copy">
	<g>
		<path d="M125.2,106.5c-3.4-3.4-7.7-5.1-12.7-5.1c-5,0-9.3,1.7-13,5.1c-3.4,3.4-5.2,7.7-5.2,12.9c0,5,1.7,9.1,5.2,12.5
			c3.6,3.6,8,5.4,13,5.4c5,0,9.2-1.8,12.7-5.4c3.5-3.3,5.3-7.5,5.3-12.5C130.5,114.2,128.7,109.9,125.2,106.5z M124.9,125.7
			c-1.4,0-2.8-0.6-3.9-1.9c-2.3-2.6-5.3-4.1-8.5-4.1c-3.2,0-6.2,1.5-8.5,4.1c-2.2,2.5-5.7,2.5-7.8,0c-2.2-2.5-2.2-6.5,0-9
			c4.4-5,10.2-7.8,16.4-7.8c6.2,0,12,2.8,16.4,7.8c2.2,2.5,2.2,6.5,0,9C127.7,125.1,126.3,125.7,124.9,125.7z"/>
	</g>
</g>
<g id="wenkbrauw_links">
	<path fill-rule="evenodd" clip-rule="evenodd" d="M158.6,96.5c-2.3,2.3-2.3,6.1,0,8.4c2.3,2.3,6.1,2.3,8.4,0
		c6.4-6.7,13.8-11.8,22-15.6c3.1-1.5,4.3-5.1,2.8-8.2c-1-2.3-3.1-3.6-5.4-3.6c-0.8,0-1.8,0-2.6,0.5C174.5,82.7,166,88.6,158.6,96.5"
		/>
</g>
<g id="wenkbrauw_rechts">
	<path fill-rule="evenodd" clip-rule="evenodd" d="M138.7,96.5c2.3,2.3,2.3,6.1,0,8.4c-2.3,2.3-6.1,2.3-8.4,0
		c-6.4-6.7-13.8-11.8-22-15.6c-3.1-1.5-4.3-5.1-2.8-8.2c1-2.3,3.1-3.6,5.4-3.6c0.8,0,1.8,0,2.6,0.5
		C122.8,82.7,131.3,88.6,138.7,96.5"/>
</g>
</svg>
