<?xml version="1.0" encoding="utf-8"?>
<!-- Generator: Adobe Illustrator 16.0.4, SVG Export Plug-In . SVG Version: 6.00 Build 0)  -->
<!DOCTYPE svg PUBLIC "-//W3C//DTD SVG 1.1//EN" "http://www.w3.org/Graphics/SVG/1.1/DTD/svg11.dtd">
<svg version="1.1" id="Layer_1" xmlns="http://www.w3.org/2000/svg" xmlns:xlink="http://www.w3.org/1999/xlink" x="0px" y="0px"
	 width="208.942px" height="188.167px" viewBox="0 0 208.942 188.167" enable-background="new 0 0 208.942 188.167"
	 xml:space="preserve">
<g>
	<defs>
		<path id="SVGID_1_" d="M176.816,167.73c3.214,1.447,5.147,3.562,5.802,6.358c0.626,2.574-0.167,5.022-2.421,7.36
			c-2.101,2.239-5.147,3.575-9.169,4.021c-69.064,8.71-116.201-3.673-141.467-37.189c-1.767-2.449-2.17-4.897-1.21-7.347
			c1.127-2.713,3.367-4.716,6.748-6.038c3.729-1.238,7.346-1.461,10.88-0.682c3.868,0.682,6.762,2.227,8.695,4.703
			c20.424,24.89,57.517,33.947,111.29,27.13C169.818,165.588,173.435,166.145,176.816,167.73"/>
	</defs>
	<clipPath id="SVGID_2_">
		<use xlink:href="#SVGID_1_"  overflow="visible"/>
	</clipPath>
	<g clip-path="url(#SVGID_2_)">
		<defs>
			<rect id="SVGID_3_" x="-265.998" y="-643.5" width="750" height="1334"/>
		</defs>
		<clipPath id="SVGID_4_">
			<use xlink:href="#SVGID_3_"  overflow="visible"/>
		</clipPath>
		<rect x="17.843" y="123.761" clip-path="url(#SVGID_4_)" fill="#FFFFFF" width="174.981" height="74.406"/>
	</g>
</g>
<g>
	<defs>
		<path id="SVGID_5_" d="M61.088,39.246c-2.852,0-5.69-1.086-7.861-3.256c-4.591-4.563-10.657-7.096-17.113-7.096
			c-6.469,0-12.536,2.532-17.113,7.096c-4.341,4.341-11.395,4.341-15.736,0c-4.354-4.341-4.354-11.395,0-15.736
			c8.779-8.779,20.438-13.621,32.849-13.621c12.396,0,24.083,4.841,32.835,13.621c4.355,4.341,4.355,11.395,0,15.736
			C66.779,38.16,63.94,39.246,61.088,39.246"/>
	</defs>
	<clipPath id="SVGID_6_">
		<use xlink:href="#SVGID_5_"  overflow="visible"/>
	</clipPath>
	<g clip-path="url(#SVGID_6_)">
		<defs>
			<rect id="SVGID_7_" x="-265.998" y="-643.5" width="750" height="1334"/>
		</defs>
		<clipPath id="SVGID_8_">
			<use xlink:href="#SVGID_7_"  overflow="visible"/>
		</clipPath>
		<rect x="-10" y="-3.366" clip-path="url(#SVGID_8_)" fill="#FFFFFF" width="92.216" height="52.612"/>
	</g>
</g>
<g>
	<defs>
		<path id="SVGID_9_" d="M208.942,39.191c0-7.388-2.531-13.523-7.568-18.393c-4.897-4.883-10.922-7.318-18.073-7.318
			c-7.137,0-13.301,2.435-18.49,7.318c-4.897,4.87-7.346,11.005-7.346,18.393c0,7.109,2.448,13.037,7.346,17.767
			c5.189,5.148,11.354,7.736,18.49,7.736c7.151,0,13.176-2.588,18.073-7.736C206.411,52.229,208.942,46.301,208.942,39.191"/>
	</defs>
	<clipPath id="SVGID_10_">
		<use xlink:href="#SVGID_9_"  overflow="visible"/>
	</clipPath>
	<g clip-path="url(#SVGID_10_)">
		<defs>
			<rect id="SVGID_11_" x="-265.998" y="-643.5" width="750" height="1334"/>
		</defs>
		<clipPath id="SVGID_12_">
			<use xlink:href="#SVGID_11_"  overflow="visible"/>
		</clipPath>
		<rect x="147.464" y="3.48" clip-path="url(#SVGID_12_)" fill="#FFFFFF" width="71.478" height="71.214"/>
	</g>
</g>
<g>
</g>
<g>
</g>
<g>
</g>
<g>
</g>
<g>
</g>
<g>
</g>
</svg>
