<?xml version="1.0" encoding="utf-8"?>
<!-- Generator: Adobe Illustrator 16.0.4, SVG Export Plug-In . SVG Version: 6.00 Build 0)  -->
<!DOCTYPE svg PUBLIC "-//W3C//DTD SVG 1.1//EN" "http://www.w3.org/Graphics/SVG/1.1/DTD/svg11.dtd">
<svg version="1.1" id="Layer_1" xmlns="http://www.w3.org/2000/svg" xmlns:xlink="http://www.w3.org/1999/xlink" x="0px" y="0px"
	 width="220.049px" height="244.905px" viewBox="0 0 220.049 244.905" enable-background="new 0 0 220.049 244.905"
	 xml:space="preserve">
<g>
	<defs>
		<path id="SVGID_1_" d="M18.991,76.681c4.592-5.238,10.658-8.145,17.113-8.145c6.47,0,12.536,2.906,17.127,8.145
			c2.17,2.491,5.022,3.736,7.847,3.736c2.852,0,5.718-1.245,7.889-3.736c4.341-4.983,4.341-13.063,0-18.062
			C60.188,48.542,48.528,43,36.104,43c-12.382,0-24.069,5.542-32.849,15.619c-4.341,4.999-4.341,13.079,0,18.062
			C7.61,81.663,14.664,81.663,18.991,76.681 M166.817,76.681c4.591-5.238,10.657-8.145,17.112-8.145
			c6.47,0,12.536,2.906,17.127,8.145c2.171,2.491,4.995,3.736,7.848,3.736c2.852,0,5.718-1.245,7.889-3.736
			c4.341-4.983,4.341-13.063,0-18.062C208.014,48.542,196.326,43,183.93,43c-12.41,0-24.069,5.542-32.849,15.619
			c-4.341,4.999-4.341,13.079,0,18.062C155.437,81.663,162.49,81.663,166.817,76.681 M6.765,195.512
			c-3.687-4.23-3.687-11.094,0-15.338c3.686-4.231,9.677-4.231,13.375,0c50.109,57.517,131.646,57.517,181.779,0
			c3.687-4.231,9.665-4.231,13.352,0c3.698,4.244,3.698,11.107,0,15.338C186.523,228.522,148.773,245,111.012,245
			C73.261,245,35.511,228.522,6.765,195.512"/>
	</defs>
	<clipPath id="SVGID_2_">
		<use xlink:href="#SVGID_1_"  overflow="visible"/>
	</clipPath>
	<g clip-path="url(#SVGID_2_)">
		<defs>
			<rect id="SVGID_3_" x="-261.193" y="-603" width="750" height="1334"/>
		</defs>
		<clipPath id="SVGID_4_">
			<use xlink:href="#SVGID_3_"  overflow="visible"/>
		</clipPath>
		<rect x="-10" y="33" clip-path="url(#SVGID_4_)" fill="#FFFFFF" width="240.049" height="222"/>
	</g>
</g>
<g>
</g>
<g>
</g>
<g>
</g>
<g>
</g>
<g>
</g>
<g>
</g>
</svg>
