<?xml version="1.0" encoding="utf-8"?>
<!-- Generator: Adobe Illustrator 16.0.4, SVG Export Plug-In . SVG Version: 6.00 Build 0)  -->
<!DOCTYPE svg PUBLIC "-//W3C//DTD SVG 1.1//EN" "http://www.w3.org/Graphics/SVG/1.1/DTD/svg11.dtd">
<svg version="1.1" id="Layer_1" xmlns="http://www.w3.org/2000/svg" xmlns:xlink="http://www.w3.org/1999/xlink" x="0px" y="0px"
	 width="166.066px" height="129.961px" viewBox="0 0 166.066 129.961" enable-background="new 0 0 166.066 129.961"
	 xml:space="preserve">
<g>
	<defs>
		<path id="SVGID_1_" d="M41.013,123.412c-0.143,1.621,0.572,3.091,2.146,4.408c1.431,1.216,3.361,1.926,5.792,2.128
			c2.288,0.102,4.362-0.354,6.221-1.368c19.879-11.958,39.114-12.009,57.706-0.152c1.717,1.115,3.791,1.622,6.221,1.521
			c2.289-0.102,4.291-0.761,6.008-1.977c1.572-1.216,2.287-2.686,2.145-4.408c-0.143-1.621-1.072-2.989-2.789-4.104
			c-25.742-16.62-52.485-16.671-80.23-0.152C42.373,120.32,41.299,121.688,41.013,123.412z"/>
	</defs>
	<clipPath id="SVGID_2_">
		<use xlink:href="#SVGID_1_"  overflow="visible"/>
	</clipPath>
	<g clip-path="url(#SVGID_2_)">
		<defs>
			<rect id="SVGID_3_" x="-133.435" y="-360.043" width="431.362" height="767.248"/>
		</defs>
		<clipPath id="SVGID_4_">
			<use xlink:href="#SVGID_3_"  overflow="visible"/>
		</clipPath>
		<rect x="35.244" y="101.204" clip-path="url(#SVGID_4_)" fill="#FFFFFF" width="97.776" height="34.509"/>
	</g>
</g>
<g>
	<defs>
		<path id="SVGID_5_" d="M7.965,23.005c2.201,0,4.015-0.727,5.439-2.181c5.569-5.21,13.664-7.209,24.284-5.998
			c2.072,0.242,3.95-0.242,5.634-1.454c1.684-1.333,2.655-2.968,2.914-4.907c0.259-2.06-0.259-3.877-1.554-5.452
			c-1.425-1.575-3.174-2.423-5.246-2.544c-16.448-1.817-28.882,1.636-37.3,10.359C0.712,12.283,0,13.979,0,15.917
			c0,2.06,0.842,3.756,2.525,5.089C4.08,22.339,5.893,23.005,7.965,23.005z"/>
	</defs>
	<clipPath id="SVGID_6_">
		<use xlink:href="#SVGID_5_"  overflow="visible"/>
	</clipPath>
	<g clip-path="url(#SVGID_6_)">
		<defs>
			<rect id="SVGID_7_" x="-133.435" y="-360.043" width="431.362" height="767.248"/>
		</defs>
		<clipPath id="SVGID_8_">
			<use xlink:href="#SVGID_7_"  overflow="visible"/>
		</clipPath>
		<rect x="-5.751" y="-5.752" clip-path="url(#SVGID_8_)" fill="#FFFFFF" width="57.805" height="34.509"/>
	</g>
</g>
<g>
	<defs>
		<path id="SVGID_9_" d="M121.578,3.014c-1.295,1.575-1.812,3.393-1.553,5.452c0.258,1.938,1.164,3.574,2.719,4.907
			c1.684,1.212,3.562,1.696,5.635,1.454c10.619-1.211,18.715,0.788,24.283,5.998c1.426,1.454,3.238,2.181,5.439,2.181
			c2.072,0,3.887-0.666,5.439-1.999c1.684-1.333,2.525-3.029,2.525-5.089c0-1.938-0.711-3.635-2.137-5.089
			c-8.418-8.723-20.852-12.176-37.299-10.359C124.557,0.591,122.873,1.439,121.578,3.014z"/>
	</defs>
	<clipPath id="SVGID_10_">
		<use xlink:href="#SVGID_9_"  overflow="visible"/>
	</clipPath>
	<g clip-path="url(#SVGID_10_)">
		<defs>
			<rect id="SVGID_11_" x="-133.435" y="-360.043" width="431.362" height="767.248"/>
		</defs>
		<clipPath id="SVGID_12_">
			<use xlink:href="#SVGID_11_"  overflow="visible"/>
		</clipPath>
		<rect x="114.209" y="-5.752" clip-path="url(#SVGID_12_)" fill="#FFFFFF" width="57.609" height="34.509"/>
	</g>
</g>
<g>
	<defs>
		<path id="SVGID_13_" d="M49.418,62.969c2.897-2.729,4.346-6.138,4.346-10.219c0-4.257-1.448-7.778-4.346-10.587
			c-2.816-2.801-6.281-4.201-10.395-4.201s-7.658,1.4-10.643,4.201c-2.809,2.809-4.226,6.33-4.226,10.587
			c0,4.081,1.417,7.49,4.226,10.219c2.984,2.961,6.529,4.449,10.643,4.449S46.602,65.93,49.418,62.969"/>
	</defs>
	<clipPath id="SVGID_14_">
		<use xlink:href="#SVGID_13_"  overflow="visible"/>
	</clipPath>
	<g clip-path="url(#SVGID_14_)">
		<defs>
			<rect id="SVGID_15_" x="-133.435" y="-360.043" width="431.362" height="767.248"/>
		</defs>
		<clipPath id="SVGID_16_">
			<use xlink:href="#SVGID_15_"  overflow="visible"/>
		</clipPath>
		<rect x="18.405" y="32.211" clip-path="url(#SVGID_16_)" fill="#FFFFFF" width="41.11" height="40.958"/>
	</g>
</g>
<g>
	<defs>
		<path id="SVGID_17_" d="M137.707,52.747c0-4.249-1.457-7.777-4.354-10.578c-2.816-2.809-6.281-4.209-10.395-4.209
			c-4.105,0-7.65,1.4-10.635,4.209c-2.816,2.801-4.225,6.329-4.225,10.578c0,4.09,1.408,7.499,4.225,10.22
			c2.984,2.96,6.529,4.448,10.635,4.448c4.113,0,7.578-1.488,10.395-4.448C136.25,60.246,137.707,56.836,137.707,52.747"/>
	</defs>
	<clipPath id="SVGID_18_">
		<use xlink:href="#SVGID_17_"  overflow="visible"/>
	</clipPath>
	<g clip-path="url(#SVGID_18_)">
		<defs>
			<rect id="SVGID_19_" x="-133.435" y="-360.043" width="431.362" height="767.248"/>
		</defs>
		<clipPath id="SVGID_20_">
			<use xlink:href="#SVGID_19_"  overflow="visible"/>
		</clipPath>
		<rect x="102.348" y="32.208" clip-path="url(#SVGID_20_)" fill="#FFFFFF" width="41.111" height="40.958"/>
	</g>
</g>
<g>
</g>
<g>
</g>
<g>
</g>
<g>
</g>
<g>
</g>
<g>
</g>
</svg>
