<?xml version="1.0" encoding="utf-8"?>
<!-- Generator: Adobe Illustrator 16.0.4, SVG Export Plug-In . SVG Version: 6.00 Build 0)  -->
<!DOCTYPE svg PUBLIC "-//W3C//DTD SVG 1.1//EN" "http://www.w3.org/Graphics/SVG/1.1/DTD/svg11.dtd">
<svg version="1.1" id="Layer_1" xmlns="http://www.w3.org/2000/svg" xmlns:xlink="http://www.w3.org/1999/xlink" x="0px" y="0px"
	 width="252.046px" height="228.072px" viewBox="0 0 252.046 228.072" enable-background="new 0 0 252.046 228.072"
	 xml:space="preserve">
<g>
	<defs>
		<path id="SVGID_1_" d="M147.88,37.857c-4.605,4.605-4.605,12.271,0,16.891c4.605,4.591,12.271,4.591,16.876,0
			c12.786-13.301,27.618-23.541,44.007-31.207c6.122-3.075,8.696-10.24,5.621-16.39C212.339,2.56,208.234,0,203.644,0
			c-1.545,0-3.59,0-5.12,1.03C179.588,10.24,162.711,21.982,147.88,37.857"/>
	</defs>
	<clipPath id="SVGID_2_">
		<use xlink:href="#SVGID_1_"  overflow="visible"/>
	</clipPath>
	<g clip-path="url(#SVGID_2_)">
		<defs>
			<rect id="SVGID_3_" x="-252" y="-610" width="750" height="1334"/>
		</defs>
		<clipPath id="SVGID_4_">
			<use xlink:href="#SVGID_3_"  overflow="visible"/>
		</clipPath>
		<rect x="134.426" y="-10" clip-path="url(#SVGID_4_)" fill="#FFFFFF" width="91.26" height="78.191"/>
	</g>
</g>
<g>
	<defs>
		<path id="SVGID_5_" d="M32.091,6.133c-3.075,6.136-0.501,13.315,5.621,16.39c16.39,8.167,31.221,18.407,44.007,31.193
			c4.605,4.605,12.271,4.605,16.877,0c4.605-4.591,4.605-12.271,0-16.876C83.764,21.994,66.888,9.736,47.966,1.027
			c-1.544-0.515-3.589-1.016-5.134-1.016C38.241,0.011,34.136,2.557,32.091,6.133"/>
	</defs>
	<clipPath id="SVGID_6_">
		<use xlink:href="#SVGID_5_"  overflow="visible"/>
	</clipPath>
	<g clip-path="url(#SVGID_6_)">
		<defs>
			<rect id="SVGID_7_" x="-252" y="-610" width="750" height="1334"/>
		</defs>
		<clipPath id="SVGID_8_">
			<use xlink:href="#SVGID_7_"  overflow="visible"/>
		</clipPath>
		<rect x="20.79" y="-9.989" clip-path="url(#SVGID_8_)" fill="#FFFFFF" width="91.259" height="77.158"/>
	</g>
</g>
<g>
	<defs>
		<path id="SVGID_9_" d="M248.79,209.081c4.341,4.341,4.341,11.381,0,15.735c-4.342,4.341-11.396,4.341-15.75,0
			c-59.005-59.005-155.019-59.005-214.052,0c-4.341,4.341-11.381,4.341-15.722,0c-4.355-4.354-4.355-11.395,0-15.735
			c33.851-33.864,78.303-50.769,122.769-50.769C170.487,158.312,214.939,175.217,248.79,209.081"/>
	</defs>
	<clipPath id="SVGID_10_">
		<use xlink:href="#SVGID_9_"  overflow="visible"/>
	</clipPath>
	<g clip-path="url(#SVGID_10_)">
		<defs>
			<rect id="SVGID_11_" x="-252" y="-610" width="750" height="1334"/>
		</defs>
		<clipPath id="SVGID_12_">
			<use xlink:href="#SVGID_11_"  overflow="visible"/>
		</clipPath>
		<rect x="-10" y="148.312" clip-path="url(#SVGID_12_)" fill="#FFFFFF" width="272.045" height="89.76"/>
	</g>
</g>
<g>
	<defs>
		<path id="SVGID_13_" d="M68.233,90.29c5.037-4.744,7.555-10.671,7.555-17.767c0-7.402-2.518-13.523-7.555-18.407
			c-4.897-4.87-10.921-7.304-18.073-7.304s-13.315,2.435-18.504,7.304C26.772,59,24.31,65.121,24.31,72.523
			c0,7.096,2.462,13.022,7.346,17.767c5.189,5.147,11.353,7.735,18.504,7.735S63.336,95.438,68.233,90.29"/>
	</defs>
	<clipPath id="SVGID_14_">
		<use xlink:href="#SVGID_13_"  overflow="visible"/>
	</clipPath>
	<g clip-path="url(#SVGID_14_)">
		<defs>
			<rect id="SVGID_15_" x="-252" y="-610" width="750" height="1334"/>
		</defs>
		<clipPath id="SVGID_16_">
			<use xlink:href="#SVGID_15_"  overflow="visible"/>
		</clipPath>
		<rect x="14.31" y="36.812" clip-path="url(#SVGID_16_)" fill="#FFFFFF" width="71.478" height="71.213"/>
	</g>
</g>
<g>
	<defs>
		<path id="SVGID_17_" d="M221.738,72.518c0-7.388-2.532-13.523-7.568-18.393c-4.897-4.883-10.922-7.318-18.073-7.318
			c-7.138,0-13.301,2.435-18.49,7.318c-4.897,4.87-7.347,11.005-7.347,18.393c0,7.109,2.449,13.036,7.347,17.767
			c5.189,5.148,11.353,7.736,18.49,7.736c7.151,0,13.176-2.588,18.073-7.736C219.206,85.554,221.738,79.627,221.738,72.518"/>
	</defs>
	<clipPath id="SVGID_18_">
		<use xlink:href="#SVGID_17_"  overflow="visible"/>
	</clipPath>
	<g clip-path="url(#SVGID_18_)">
		<defs>
			<rect id="SVGID_19_" x="-252" y="-610" width="750" height="1334"/>
		</defs>
		<clipPath id="SVGID_20_">
			<use xlink:href="#SVGID_19_"  overflow="visible"/>
		</clipPath>
		<rect x="160.26" y="36.806" clip-path="url(#SVGID_20_)" fill="#FFFFFF" width="71.479" height="71.214"/>
	</g>
</g>
<g>
</g>
<g>
</g>
<g>
</g>
<g>
</g>
<g>
</g>
<g>
</g>
</svg>
