<?xml version="1.0" encoding="utf-8"?>
<!-- Generator: Adobe Illustrator 16.0.4, SVG Export Plug-In . SVG Version: 6.00 Build 0)  -->
<!DOCTYPE svg PUBLIC "-//W3C//DTD SVG 1.1//EN" "http://www.w3.org/Graphics/SVG/1.1/DTD/svg11.dtd">
<svg version="1.1" id="Layer_1" xmlns="http://www.w3.org/2000/svg" xmlns:xlink="http://www.w3.org/1999/xlink" x="0px" y="0px"
	 width="252.076px" height="256.565px" viewBox="0 0 252.076 256.565" enable-background="new 0 0 252.076 256.565"
	 xml:space="preserve">
<g>
	<defs>
		<path id="SVGID_1_" d="M51.325,68.715c5.746,0,33.391-25.071,33.391-43.506c0-18.449-29.231-20.897-33.391-3.019
			C48.529,4.312,17.934,6.76,17.934,25.209C17.934,43.644,44.41,68.715,51.325,68.715 M198.136,68.715
			c5.732,0,33.392-25.071,33.392-43.506c0-18.449-29.246-20.897-33.392-3.019c-2.811-17.878-33.392-15.43-33.392,3.019
			C164.744,43.644,191.221,68.715,198.136,68.715 M240.933,119.634H11.145C5.009,119.634,0,124.601,0,130.764
			c0,82.588,63.416,125.802,126.038,125.802c62.623,0,126.038-43.214,126.038-125.802
			C252.076,124.601,247.067,119.634,240.933,119.634 M126.038,234.305c-47.29,0-97.989-29.022-103.318-92.424h206.623
			C224.027,205.282,173.329,234.305,126.038,234.305"/>
	</defs>
	<clipPath id="SVGID_2_">
		<use xlink:href="#SVGID_1_"  overflow="visible"/>
	</clipPath>
	<g clip-path="url(#SVGID_2_)">
		<defs>
			<rect id="SVGID_3_" x="-250" y="-618" width="750" height="1334"/>
		</defs>
		<clipPath id="SVGID_4_">
			<use xlink:href="#SVGID_3_"  overflow="visible"/>
		</clipPath>
		<rect x="-10" clip-path="url(#SVGID_4_)" fill="#FFFFFF" width="272.076" height="266.565"/>
	</g>
</g>
<g>
</g>
<g>
</g>
<g>
</g>
<g>
</g>
<g>
</g>
<g>
</g>
</svg>
