<?xml version="1.0" encoding="utf-8"?>
<!-- Generator: Adobe Illustrator 16.0.4, SVG Export Plug-In . SVG Version: 6.00 Build 0)  -->
<!DOCTYPE svg PUBLIC "-//W3C//DTD SVG 1.1//EN" "http://www.w3.org/Graphics/SVG/1.1/DTD/svg11.dtd">
<svg version="1.1" id="Layer_1" xmlns="http://www.w3.org/2000/svg" xmlns:xlink="http://www.w3.org/1999/xlink" x="0px" y="0px"
	 width="2383.939px" height="3370.391px" viewBox="0 0 2383.939 3370.391" enable-background="new 0 0 2383.939 3370.391"
	 xml:space="preserve">
<g>
	<path fill="#FFFFFF" d="M1009.599,1797.24c-1.192,0-3.576,1.192-4.769,1.192c-4.768-7.152-9.535-14.304-13.111-21.456
		c-26.224-44.103-50.062-89.397-77.478-133.5c-65.559-103.701-209.787-115.621-290.841-23.84
		c-53.639,61.982-61.982,145.421-15.496,220.515c65.559,106.085,115.621,218.131,145.421,338.52
		c29.799,123.965,82.246,237.202,154.956,342.095c34.566,48.871,65.558,98.934,100.125,147.805
		c33.375,48.871,66.75,96.549,102.51,143.036c16.688,22.647,42.911,25.031,63.174,9.536c20.264-14.304,23.84-39.336,10.728-61.982
		c-3.575-5.96-8.344-11.92-11.919-17.88c-72.71-106.085-144.229-213.362-216.938-319.448
		c-42.911-61.982-73.902-129.924-92.974-202.635c-40.527-152.572-91.782-300.376-178.796-433.877
		c-10.728-17.879-14.304-44.103-10.728-65.559c5.96-39.334,34.567-63.174,73.902-71.518c35.759-7.152,73.901,10.728,94.165,46.486
		c54.831,94.166,109.661,189.523,164.492,283.689c15.496,27.415,38.143,36.951,64.366,29.799
		c26.224-8.344,33.375-28.607,33.375-53.639c0-175.219,0-350.438,0-525.658c0-168.068,0-336.136,0-504.203
		c0-47.679,25.031-82.246,64.366-92.974c61.982-17.88,116.813,26.224,116.813,92.974c0,252.697,0,505.395,0,758.093
		c0,34.566,19.071,56.022,46.487,56.022c27.415-1.192,44.103-21.456,44.103-56.022c0-69.135,0-138.269,0-208.595
		c0-59.599,36.951-100.126,90.589-100.126c54.831,0,90.59,39.335,91.782,98.934c0,71.519,0,141.845,0,213.362
		c0,30.991,19.071,51.255,46.487,51.255c27.415,0,44.103-20.263,45.295-52.446c0-41.719,0-83.438,0-125.157
		c0-36.951,14.303-65.558,47.678-83.438c60.791-34.567,133.501,8.344,134.693,79.862c1.191,71.518,0,144.228,1.191,215.746
		c0,15.496,5.96,35.759,16.688,44.103c10.729,8.344,30.992,10.728,46.487,7.152c20.263-4.769,27.415-23.84,27.415-44.104
		c0-45.295-1.191-90.589,1.192-135.884c2.384-57.215,50.062-95.358,104.894-87.015c45.295,7.152,76.285,45.295,76.285,97.742
		c0,106.085,1.192,212.17,0,317.063c-1.191,42.911-4.768,87.014-11.919,129.925c-20.264,129.925-65.559,252.697-104.894,376.663
		c-30.991,96.549-61.982,193.099-64.366,295.607c-1.192,34.567,15.495,54.831,42.911,57.215
		c27.415,1.192,45.295-19.071,48.871-52.446c2.383-29.8,2.383-60.79,10.727-89.397c28.607-103.701,58.407-206.211,89.398-308.721
		c36.951-121.58,75.094-243.161,78.67-371.895c3.576-123.965,4.768-246.737,1.191-370.702
		c-2.383-85.821-64.365-153.765-147.804-169.26c-46.487-9.536-91.781,1.192-132.309,25.031
		c-50.062-107.277-159.724-152.572-274.153-92.974c-64.366-113.237-119.197-133.5-263.425-97.741c0-9.536,0-17.88,0-26.224
		c0-120.389,1.192-241.97,0-362.358c-1.192-109.661-101.317-191.907-209.787-174.028c-96.55,15.496-158.532,88.206-159.724,181.18
		c0,267.001,0,534.003,0,799.812C1009.599,1747.177,1009.599,1772.209,1009.599,1797.24z M2124.09,730.427
		c-1.192,2.384-2.384,4.768-3.576,7.151c-8.344,0-15.495,0-23.839,0c-162.108,0-324.216,0-485.132,0
		c-33.375,0-67.942-1.191-101.317,0c-27.416,1.192-46.486,21.456-45.295,46.487c0,25.031,20.264,42.91,47.679,44.103
		c5.96,0,11.92,0,19.071,0c187.14,0,375.471,0,562.61,0c9.535,0,19.071,0,28.606,0c-27.415,35.759-58.406,66.751-89.397,96.55
		c-25.031,25.031-27.415,52.446-7.151,72.71s46.486,16.688,72.71-8.344c56.022-54.831,110.853-110.854,165.684-165.684
		c28.607-28.607,28.607-51.255,0-79.862c-54.831-56.022-110.854-110.854-165.684-165.684c-26.224-26.224-51.255-28.607-72.71-8.344
		c-20.264,19.071-16.688,47.679,7.151,72.71C2063.3,670.829,2093.099,700.628,2124.09,730.427z M262.233,737.579
		c-1.192-2.384-2.384-4.768-2.384-5.96c29.799-29.799,60.79-59.598,90.59-89.397c25.031-25.031,27.415-53.639,7.151-72.71
		c-20.264-21.455-45.295-17.88-71.518,7.151c-54.831,54.831-109.661,109.661-164.492,164.492c-30.991,30.991-30.991,52.446,0,83.438
		c52.446,52.447,104.893,104.894,156.148,156.148c32.183,32.183,58.407,36.951,79.862,15.495
		c21.455-21.455,16.688-48.87-15.495-79.861c-27.416-27.416-56.023-56.022-88.206-89.398c15.496,0,22.647,0,29.799,0
		c152.572,0,306.335,0,458.908,0c44.104,0,87.015,1.192,131.117,0c26.224-1.191,44.103-20.263,44.103-44.103
		c0-22.647-16.688-41.719-40.526-45.295c-8.344-1.191-17.88-1.191-26.224-1.191c-177.604,0-355.207,0-534.003,0
		C299.185,737.579,281.305,737.579,262.233,737.579z"/>
	<path fill="#FFFFFF" d="M1009.599,1797.24c0-25.031,0-51.255,0-76.286c0-267.001,0-534.002,0-799.812
		c0-92.974,63.174-165.684,153.764-179.987c108.469-17.88,208.595,64.366,209.787,174.027c1.191,120.39,0,241.97,0,362.359
		c0,8.344,0,17.879,0,26.223c144.229-35.759,199.059-15.495,263.425,97.742c114.429-60.791,225.282-14.304,274.153,92.974
		c41.719-23.84,85.822-34.567,132.309-25.031c83.438,15.495,145.42,83.438,147.805,169.259
		c2.383,123.966,2.383,246.738-1.192,370.703c-3.576,127.54-41.719,250.313-78.67,371.895
		c-30.991,102.509-61.982,206.211-89.397,308.72c-8.344,28.607-8.344,59.599-10.729,89.398
		c-3.576,33.375-21.455,53.639-48.871,52.446c-27.415-1.192-44.103-22.647-42.91-57.215c2.384-102.51,33.375-199.059,64.366-295.608
		c40.526-123.965,85.821-246.738,104.894-376.662c5.959-42.911,10.728-87.015,11.919-129.925c1.192-106.086,1.192-212.171,0-317.064
		c0-52.446-30.991-90.59-76.286-97.741c-54.83-8.344-102.509,29.799-104.893,87.014c-1.192,45.295,0,90.59-1.192,135.885
		c0,20.264-7.151,39.335-27.415,44.103c-14.304,3.576-35.76,1.192-46.486-7.151c-10.729-9.536-16.688-28.607-16.688-44.104
		c-1.193-71.518,0-144.228-1.193-215.746c-1.191-71.519-73.901-113.237-134.691-79.862c-32.184,17.88-46.487,47.679-47.68,83.438
		c0,41.719,0,83.438,0,125.156c0,32.184-17.879,51.255-45.295,52.447c-27.415,0-45.295-20.264-46.486-51.255
		c0-71.519,0-141.845,0-213.362c0-59.599-36.951-98.934-91.781-98.934c-53.639,0-90.59,40.526-90.59,100.125
		c0,69.135,0,138.269,0,208.595c0,34.567-16.688,54.831-44.104,56.022c-28.607,1.192-46.486-21.455-46.486-56.022
		c0-252.697,0-505.396,0-758.093c0-67.942-54.83-110.854-116.812-92.974c-39.336,11.92-64.367,46.487-64.367,92.974
		c0,168.068,0,336.136,0,504.203c0,175.22,0,350.439,0,525.659c0,26.223-7.151,45.295-33.375,53.639s-47.679-2.384-64.366-29.8
		c-54.831-94.166-109.661-189.523-164.492-283.688c-20.264-35.759-58.406-53.639-94.165-46.487
		c-39.336,8.344-67.942,30.991-73.902,71.519c-3.576,21.455,0,48.871,10.728,65.559c87.014,133.5,138.269,281.305,178.796,433.877
		c19.071,72.71,50.062,140.652,92.974,202.635c72.71,106.085,144.228,213.362,216.938,319.448
		c3.576,5.959,8.344,11.919,11.92,17.879c13.111,22.647,9.535,46.486-10.729,61.982s-46.486,11.92-63.174-9.535
		c-34.567-47.68-69.135-95.358-102.51-143.037c-33.375-48.871-65.559-98.934-100.125-147.804
		c-72.711-104.894-125.157-218.131-154.957-342.096c-28.607-121.581-78.67-233.626-145.42-338.52
		c-46.486-75.094-38.143-158.532,15.496-220.514c79.861-91.782,225.281-79.862,290.84,23.839
		c27.416,44.104,52.447,89.397,77.479,133.501c4.768,7.151,9.535,14.304,13.111,21.455
		C1007.214,1798.432,1008.406,1797.24,1009.599,1797.24z"/>
	<path fill="#FFFFFF" d="M2124.09,730.427c-29.799-29.8-60.79-59.599-90.59-89.398c-25.031-25.031-27.415-52.446-7.151-72.71
		c20.264-20.263,46.486-17.879,72.71,8.344c54.831,54.831,110.853,110.854,165.684,165.685c28.607,28.606,28.607,51.254,0,79.861
		c-54.831,56.022-110.854,110.854-165.684,165.684c-25.031,25.031-52.446,28.607-72.71,8.344
		c-20.264-20.263-17.88-46.486,7.151-72.71c30.991-30.991,60.791-60.79,89.397-96.55c-9.535,0-19.071,0-28.606,0
		c-187.14,0-375.471,0-562.61,0c-5.959,0-11.92,0-19.071,0c-27.415-1.191-46.487-19.071-47.679-44.103
		c0-25.031,17.88-45.295,45.295-46.486c33.375-1.192,67.942,0,101.317,0c162.108,0,324.216,0,485.132,0c8.344,0,15.496,0,23.84,0
		C2121.706,735.195,2122.898,732.811,2124.09,730.427z"/>
	<path fill="#FFFFFF" d="M262.233,737.579c17.879,0,36.951,0,54.83,0c177.604,0,355.207,0,534.003,0c8.344,0,17.88,0,26.224,1.192
		c23.839,3.576,40.526,23.839,40.526,45.295c0,23.839-19.071,44.103-44.103,44.103c-44.103,1.192-87.014,0-131.117,0
		c-152.571,0-306.336,0-458.908,0c-7.152,0-15.496,0-29.799,0c33.375,33.375,60.79,60.79,88.206,89.397
		c32.183,32.184,36.95,58.407,15.495,79.862c-21.455,21.456-47.679,16.688-79.862-15.495
		c-52.447-52.447-104.893-103.702-156.148-156.148c-30.991-30.991-30.991-52.446,0-83.438
		c54.831-56.023,109.661-110.854,164.492-165.685c26.223-26.223,51.254-28.606,72.71-8.344c20.263,19.072,16.688,47.679-7.152,72.71
		c-29.799,29.8-60.79,59.599-90.589,89.398C261.042,732.811,262.233,735.195,262.233,737.579z"/>
</g>
</svg>
